<?xml version="1.0" encoding="UTF-8" standalone="no"?>
<!-- Created with Inkscape (http://www.inkscape.org/) -->

<svg
   width="28.974527"
   height="21.301126"
   viewBox="0 0 7.666177 5.635923"
   version="1.1"
   id="svg1"
   xml:space="preserve"
   sodipodi:docname="vector_icons_urchin.svg"
   inkscape:version="1.1.1 (c3084ef, 2021-09-22)"
   xmlns:inkscape="http://www.inkscape.org/namespaces/inkscape"
   xmlns:sodipodi="http://sodipodi.sourceforge.net/DTD/sodipodi-0.dtd"
   xmlns="http://www.w3.org/2000/svg"
   xmlns:svg="http://www.w3.org/2000/svg"><sodipodi:namedview
     id="namedview164"
     pagecolor="#ffffff"
     bordercolor="#666666"
     borderopacity="1.0"
     inkscape:pageshadow="2"
     inkscape:pageopacity="0.0"
     inkscape:pagecheckerboard="0"
     showgrid="false"
     inkscape:zoom="29.341171"
     inkscape:cx="14.501807"
     inkscape:cy="10.650563"
     inkscape:window-width="1296"
     inkscape:window-height="847"
     inkscape:window-x="36"
     inkscape:window-y="25"
     inkscape:window-maximized="0"
     inkscape:current-layer="g81" /><defs
     id="defs1" /><g
     id="layer19"
     style="opacity:1"
     transform="translate(-0.44880484,-1.30269)"><circle
       id="path71"
       style="fill:#000000;stroke:#060606;stroke-width:0.264583"
       cx="3.0633006"
       cy="1.1539261"
       r="2.7687952e-07" /><g
       id="g81"><path
         style="fill:#cccccc;fill-opacity:1;fill-rule:nonzero;stroke:none;stroke-width:0.280905;stroke-linecap:round;stroke-dasharray:none;stroke-opacity:1"
         d="M 4.3547478,3.709856 C 4.0256923,3.7628188 3.5056531,3.9769531 3.3117607,4.3539876 3.0650569,4.8337168 3.3479573,5.257889 3.6126656,5.4811025 3.8909636,5.7157752 4.5872649,6.0272792 5.2905941,5.8122189 6.010575,5.5920669 6.2408707,5.1685443 6.2560883,4.857859 6.2705266,4.5630823 6.0373598,4.1227182 5.6569248,3.9328245 5.2321927,3.7208202 4.7855417,3.6405178 4.3547478,3.709856 Z"
         id="path29" /><path
         d="m 1.2151698,3.0051578 c 0.015778,-0.00649 0.044061,-0.016703 0.095173,-0.039187 0.085252,-0.037501 0.2861167,-0.1313818 0.5456242,-0.25304 C 2.063234,2.6157204 2.2745218,2.5167658 2.491364,2.4174766 2.6961217,2.319026 2.866668,2.2389731 2.952261,2.1993834 c 0.1387591,-0.064181 0,0 0,0 a 0.0387258,0.0387258 90 0 0 -0.027875,-0.072262 c 0,0 0.1461575,-0.045724 0,0 C 2.831024,2.1563292 2.6571346,2.2101771 2.4369454,2.2811477 2.2129209,2.3579324 1.9874411,2.4375461 1.773928,2.513903 1.5151607,2.6065055 1.2842237,2.6902943 1.2087137,2.7193495 c -0.052129,0.020059 -0.079183,0.032609 -0.09502,0.039124 a 0.13337053,0.13337053 90 0 0 0.101476,0.2466848 z"
         id="path-1"
         style="fill:#cccccc;fill-opacity:1;fill-rule:nonzero;stroke:none;stroke-width:1.00157;stroke-linecap:round;stroke-dasharray:none;stroke-opacity:1"
         transform="matrix(-1.2921113,0,0,-1.2921113,4.9502171,8.8942985)" /><path
         d="m 1.0211931,1.9464429 c 0.023936,0.00664 0.068348,0.020516 0.1435848,0.039921 0.1357643,0.035016 0.4766455,0.1136758 0.8477124,0.202961 0.301156,0.069982 0.6257452,0.1476658 0.8461261,0.2058371 0.00163,1.845e-4 0.00322,3.805e-4 0.00477,5.895e-4 0.049495,0.00669 0.1016294,0.029691 0.1219575,0.035626 a 0.04623056,0.04623056 90 0 0 0.025913,-0.088756 c -0.020336,-0.00594 -0.076617,-0.014599 -0.1219357,-0.03562 -0.00142,-6.566e-4 -0.00286,-0.00135 -0.00433,-0.00207 C 2.6679753,2.2352498 2.3526342,2.1257106 2.0598775,2.0247398 1.6928309,1.90122 1.3695316,1.7939896 1.2300849,1.7521613 1.1558268,1.7298869 1.1097878,1.7186956 1.0861441,1.7121413 a 0.12156878,0.12156878 90 0 0 -0.064951,0.2343016 z"
         id="path-1-9"
         style="fill:#cccccc;fill-opacity:1;fill-rule:nonzero;stroke:none;stroke-width:1.00157;stroke-linecap:round;stroke-dasharray:none;stroke-opacity:1"
         transform="matrix(-1.2921113,0,0,-1.2921113,4.6888884,6.8212861)" /><path
         d="m 1.5071146,1.9855005 c 0.014717,0.0096 0.041708,0.028406 0.088244,0.057715 0.083931,0.05286 0.2963342,0.18001 0.5269491,0.3208147 0.2124092,0.1299364 0.4791229,0.2948564 0.6310415,0.3912993 0.00561,0.0035 0.011089,0.00693 0.016434,0.010292 0.1711453,0.1075796 0.3624156,0.2374764 0.4354475,0.2842132 a 0.04623056,0.04623056 90 0 0 0.049839,-0.077879 C 3.1712396,2.9183077 2.997088,2.8117054 2.8208822,2.6885625 2.8157171,2.6849528 2.8104359,2.6812453 2.8050441,2.6774445 2.636907,2.5608358 2.4244084,2.4054545 2.2025831,2.243952 1.9782355,2.0801776 1.7887451,1.9429243 1.7005296,1.8827801 1.6552044,1.851878 1.6264291,1.8342938 1.611943,1.8248417 A 0.09591691,0.09591691 90 0 0 1.5071146,1.9855005 Z"
         id="path-1-9-8"
         style="fill:#cccccc;fill-opacity:1;fill-rule:nonzero;stroke:none;stroke-width:1.00157;stroke-linecap:round;stroke-dasharray:none;stroke-opacity:1"
         transform="matrix(-1.2921113,0,0,-1.2921113,5.5212057,6.5835392)" /><path
         d="m 1.9885956,1.8670638 c 0.016041,0.016299 0.045603,0.048087 0.096208,0.097808 0.093862,0.092221 0.3304217,0.3129251 0.5808203,0.5526625 0.1699531,0.1589291 0.3491882,0.3295573 0.4722989,0.4526972 0.016391,0.016395 0.033021,0.033158 0.049802,0.05018 0.00915,0.0033 0.011924,0.014401 0.014538,0.017135 a 0.03857521,0.03857521 90 0 0 0.055774,-0.053305 c -0.00261,-0.00273 -0.013575,-0.00601 -0.016463,-0.015301 C 3.2253271,2.9514119 3.2093315,2.9340393 3.1936971,2.916926 3.0757082,2.7877761 2.9145616,2.6020258 2.7608151,2.4256363 2.5317184,2.1688279 2.3100024,1.9234903 2.2216068,1.8303905 2.1728702,1.7790601 2.1412073,1.7486457 2.1253204,1.7325034 A 0.09591691,0.09591691 90 0 0 1.9885956,1.8670638 Z"
         id="path-1-9-8-9"
         style="fill:#cccccc;fill-opacity:1;fill-rule:nonzero;stroke:none;stroke-width:1.00157;stroke-linecap:round;stroke-dasharray:none;stroke-opacity:1"
         transform="matrix(-1.2921113,0,0,-1.2921113,6.4006343,6.225591)" /><path
         d="m 2.7447851,2.0334687 c 0.0075,0.022969 0.020198,0.067217 0.044927,0.1378271 0.040896,0.1167756 0.1648448,0.4446467 0.287965,0.7768701 0.1283538,0.3457135 0.2655288,0.7217357 0.2983404,0.819036 0.016228,0.048123 0.023407,0.074896 0.028091,0.089875 a 0.03857521,0.03857521 90 0 0 0.073634,-0.023027 C 3.473067,3.8190997 3.4637012,3.7929649 3.4496574,3.7441952 3.418777,3.6369578 3.3234504,3.2667288 3.2266865,2.9009396 3.1351413,2.5551985 3.0440899,2.2216679 3.0075869,2.1003972 2.9860509,2.0288505 2.970032,1.9851481 2.9625903,1.9623557 a 0.11456018,0.11456018 90 0 0 -0.2178052,0.071113 z"
         id="path-1-9-8-9-4"
         style="fill:#cccccc;fill-opacity:1;fill-rule:nonzero;stroke:none;stroke-width:1.00157;stroke-linecap:round;stroke-dasharray:none;stroke-opacity:1"
         transform="matrix(-1.2921113,0,0,-1.2921113,7.6630689,6.3214295)" /><path
         d="m 3.1801301,2.6511273 c 5.827e-4,0.011318 0.00113,0.030793 0.00348,0.06791 0.00411,0.065089 0.018657,0.2547143 0.034575,0.4768888 0.022885,0.2872752 0.010541,0.1335538 0.033426,0.4208183 0.00897,0.093485 0.016572,0.1724924 0.019459,0.2109466 0.00299,0.039839 0.00347,0.066003 0.00417,0.079202 a 0.04350355,0.04350355 90 0 0 0.086884,-0.00463 c -6.956e-4,-0.013066 -0.00301,-0.039333 -0.00416,-0.079094 -0.00111,-0.038425 -0.00168,-0.1178068 -0.00167,-0.2114486 -0.00207,-0.1388744 -0.00313,-0.2786623 -0.00471,-0.421828 -0.00416,-0.222392 -0.00899,-0.4142913 -0.011479,-0.4788191 -0.00143,-0.037041 -0.00291,-0.05685 -0.00348,-0.068007 a 0.07834928,0.07834928 90 0 0 -0.1564914,0.00806 z"
         id="path-1-9-8-9-4-2"
         style="fill:#cccccc;fill-opacity:1;fill-rule:nonzero;stroke:none;stroke-width:1.00157;stroke-linecap:round;stroke-dasharray:none;stroke-opacity:1"
         transform="matrix(-1.2921113,0,0,-1.2921113,8.4638345,7.1354062)" /><path
         d="m 3.1536503,2.638306 c -0.00173,0.013902 -0.0055,0.0377 -0.01037,0.083416 -0.00819,0.076912 -0.029333,0.3177817 -0.052521,0.589176 -0.015216,0.1948165 -0.029398,0.3798728 -0.042039,0.5699129 -0.00963,0.1623649 -0.016042,0.2856298 -0.021362,0.3549912 -0.00512,0.066816 -0.011117,0.1102992 -0.01333,0.1323539 a 0.04350355,0.04350355 90 0 0 0.086572,0.00869 c 0.00217,-0.02165 0.005,-0.066256 0.013323,-0.1322759 0.00778,-0.06171 0.027991,-0.1980914 0.052766,-0.3507438 0.028614,-0.1850559 0.060317,-0.3717133 0.092615,-0.5620691 0.044803,-0.2752916 0.08157,-0.5007132 0.093422,-0.5839808 0.00648,-0.045504 0.00865,-0.069572 0.010374,-0.083453 A 0.10553036,0.10553036 90 0 0 3.1536503,2.638306 Z"
         id="path-1-9-8-9-4-2-1"
         style="fill:#cccccc;fill-opacity:1;fill-rule:nonzero;stroke:none;stroke-width:1.00157;stroke-linecap:round;stroke-dasharray:none;stroke-opacity:1"
         transform="matrix(-1.2921113,0,0,-1.2921113,8.8422347,7.2180276)" /><path
         d="m 3.5290051,2.6380041 c -0.00614,0.013041 -0.017584,0.035447 -0.037077,0.078782 -0.034403,0.076483 -0.1317112,0.3047436 -0.2401895,0.5637753 -0.06878,0.1694222 -0.1341965,0.3326653 -0.2024095,0.505235 -0.059983,0.1513663 -0.1090182,0.276315 -0.1488723,0.3729391 -0.020191,0.048953 -0.039637,0.09492 -0.058407,0.1384543 -0.00569,0.015677 -0.013037,0.027495 -0.01745,0.037891 -0.00362,0.00853 -0.00753,0.017097 -0.00904,0.020523 a 0.0419168,0.0419168 90 0 0 0.07672,0.033794 c 0.00151,-0.00342 0.0052,-0.012109 0.00904,-0.020532 0.00469,-0.010279 0.00845,-0.02368 0.016165,-0.038466 0.019392,-0.043133 0.04024,-0.088808 0.062612,-0.1366357 C 3.0215274,4.1052014 3.0860749,3.9725053 3.1558307,3.8334851 3.2367485,3.6724204 3.3218191,3.5088254 3.4044494,3.3514315 3.536881,3.0923606 3.6411936,2.8915217 3.6829105,2.8066326 c 0.020983,-0.042698 0.030874,-0.065607 0.037052,-0.078729 a 0.10553036,0.10553036 90 0 0 -0.1909572,-0.0899 z"
         id="path-1-9-8-9-4-2-1-1"
         style="fill:#cccccc;fill-opacity:1;fill-rule:nonzero;stroke:none;stroke-width:1.00157;stroke-linecap:round;stroke-dasharray:none;stroke-opacity:1"
         transform="matrix(-1.2921113,0,0,-1.2921113,9.6381556,7.2934113)" /><path
         d="m 3.5444898,2.6141235 c -0.00721,0.00838 -0.020334,0.022389 -0.043428,0.050492 C 3.4587313,2.7161277 3.3475497,2.8587375 3.2118173,3.033119 3.108301,3.1669798 3.0064858,3.2985914 2.904148,3.4268559 2.7885555,3.5697726 2.6829013,3.6958346 2.6344346,3.7515271 2.582663,3.8110171 2.5451859,3.8497232 2.5279713,3.86862 a 0.04350355,0.04350355 90 0 0 0.06432,0.058594 C 2.6100708,3.9076964 2.6440657,3.8679857 2.6988825,3.8099796 2.7517515,3.7540345 2.8629991,3.6408206 2.9931383,3.5053838 3.1098587,3.3856363 3.2223584,3.2679855 3.3406594,3.1437632 3.4886549,2.9872738 3.6203969,2.8474791 3.661104,2.8022134 c 0.024328,-0.027052 0.036143,-0.042026 0.043374,-0.050429 A 0.10553036,0.10553036 90 0 0 3.5444898,2.6141235 Z"
         id="path-1-9-8-9-4-2-1-1-2"
         style="fill:#cccccc;fill-opacity:1;fill-rule:nonzero;stroke:none;stroke-width:1.00157;stroke-linecap:round;stroke-dasharray:none;stroke-opacity:1"
         transform="matrix(-1.2921113,0,0,-1.2921113,10.002011,7.5329851)" /><path
         d="m 3.5790425,2.5974969 c -0.00747,0.00397 -0.020709,0.010223 -0.044926,0.02389 -0.042864,0.02419 -0.1668121,0.098951 -0.30725,0.1847384 -0.096018,0.06028 -0.1875069,0.1182822 -0.2844188,0.1805623 -0.08921,0.056796 -0.1634534,0.1046209 -0.2210706,0.1400272 -0.029373,0.01805 -0.057237,0.034753 -0.083829,0.050397 -0.049568,0.029618 -0.091813,0.052049 -0.1257172,0.071692 -0.028047,0.016249 -0.055968,0.032131 -0.067479,0.038736 a 0.0419168,0.0419168 90 0 0 0.041725,0.072712 c 0.011252,-0.00646 0.039587,-0.022863 0.067499,-0.038747 0.034061,-0.019383 0.074722,-0.044576 0.1252713,-0.07243 0.026847,-0.015018 0.05546,-0.030722 0.085772,-0.04686 0.056526,-0.030093 0.1413588,-0.072993 0.2327181,-0.1172429 0.1001127,-0.048014 0.2038361,-0.095383 0.3037701,-0.1405855 0.153127,-0.071512 0.2754344,-0.1278521 0.3239002,-0.1520908 0.024875,-0.01244 0.03743,-0.019904 0.044917,-0.023886 a 0.09678746,0.09678746 90 0 0 -0.090882,-0.170914 z"
         id="path-1-9-8-9-4-2-1-1-2-3"
         style="fill:#cccccc;fill-opacity:1;fill-rule:nonzero;stroke:none;stroke-width:1.00157;stroke-linecap:round;stroke-dasharray:none;stroke-opacity:1"
         transform="matrix(-1.2921113,0,0,-1.2921113,10.232127,7.7520446)" /><path
         d="m 5.5110697,4.4609286 c 0.00965,-0.00513 0.026758,-0.013209 0.058049,-0.030868 C 5.6245037,4.3988046 5.7846585,4.3022049 5.9661199,4.191358 6.0901859,4.11347 6.2083997,4.0385242 6.3336207,3.9580514 c 0.1152692,-0.073387 0.2112,-0.1351818 0.2856478,-0.1809307 0.037953,-0.023323 0.073957,-0.044905 0.1083164,-0.065119 0.064047,-0.03827 0.1186326,-0.067253 0.1624406,-0.092634 0.03624,-0.020995 0.072317,-0.041517 0.08719,-0.050051 a 0.05416117,0.05416117 0 0 0 -0.053913,-0.093952 c -0.014539,0.00835 -0.051151,0.029541 -0.087216,0.050065 -0.044011,0.025045 -0.096549,0.057597 -0.1618644,0.093588 -0.034689,0.019405 -0.071661,0.039696 -0.110827,0.060548 C 6.4903574,3.7184493 6.380744,3.7738809 6.2626976,3.8310566 6.1333409,3.8930961 5.9993187,3.9543021 5.8701928,4.0127088 5.6723357,4.1051102 5.5143009,4.1779079 5.4516777,4.209227 5.4195364,4.2253009 5.403314,4.2349452 5.39364,4.2400904 a 0.12506017,0.12506017 0 0 0 0.1174296,0.2208399 z"
         id="path-1-9-8-9-4-2-1-1-2-3-58"
         style="fill:#cccccc;fill-opacity:1;fill-rule:nonzero;stroke:none;stroke-width:1.29414;stroke-linecap:round;stroke-dasharray:none;stroke-opacity:1" /><path
         d="m 5.932316,4.7449946 c 0.013265,-0.00273 0.036486,-0.00658 0.079802,-0.016427 0.07667,-0.017428 0.3001974,-0.073869 0.553872,-0.1391761 0.1740548,-0.046694 0.3401141,-0.091896 0.5163349,-0.140833 0.1620133,-0.044376 0.2970572,-0.082007 0.4012115,-0.109065 0.053097,-0.013794 0.1033091,-0.026352 0.1511141,-0.037965 0.089284,-0.02222 0.1643133,-0.037625 0.2251501,-0.052051 0.050327,-0.011932 0.1003156,-0.023442 0.1209456,-0.028259 A 0.06789478,0.05416117 0 0 0 7.9425998,4.1172598 c -0.020169,0.00472 -0.071006,0.016751 -0.120982,0.028266 -0.060986,0.014051 -0.134566,0.033405 -0.2247276,0.053113 -0.04797,0.010749 -0.098982,0.021825 -0.152833,0.032933 -0.1004222,0.020713 -0.2502753,0.048956 -0.4109179,0.076921 -0.175854,0.030047 -0.3571497,0.058193 -0.5316568,0.084762 -0.2682462,0.043537 -0.4822079,0.077333 -0.567718,0.093129 -0.043887,0.00811 -0.066488,0.013687 -0.079788,0.016425 a 0.15677159,0.12506017 0 0 0 0.078338,0.2421873 z"
         id="path-1-9-8-9-4-2-1-1-2-3-58-9"
         style="fill:#cccccc;fill-opacity:1;fill-rule:nonzero;stroke:none;stroke-width:1.44896;stroke-linecap:round;stroke-dasharray:none;stroke-opacity:1" /><path
         d="M 4.3801461,4.6634332 C 4.366764,4.6755742 4.3422056,4.6967421 4.2984343,4.7376515 4.221908,4.8091983 3.990402,5.0311341 3.7397827,5.2776894 3.6182803,5.4020592 3.49656,5.5285945 3.3746505,5.6562689 3.2612124,5.7736757 3.1821252,5.8558986 3.1001162,5.940402 2.8429936,6.2053456 3.2174964,5.8194347 2.9603738,6.0843785 2.8456209,6.2058339 2.7380534,6.3191312 2.6904906,6.366367 c -0.019153,0.019023 -0.032289,0.030474 -0.038729,0.036554 a 0.04648233,0.04648233 0 0 0 0.063795,0.067621 c 0.00646,-0.0061 0.018635,-0.018523 0.038758,-0.036574 0.048451,-0.043491 0.1706734,-0.147184 0.2964893,-0.2543478 -1.12e-4,9.86e-5 0.1510628,-0.1325052 0.150961,-0.1324147 C 3.277404,5.9807334 3.3890054,5.8831177 3.4990947,5.7874393 3.6329782,5.6724552 3.7654897,5.5599565 3.8982272,5.448383 4.1679747,5.2121991 4.3977259,5.0151572 4.4825481,4.9402051 4.5276006,4.9003913 4.5505203,4.8784611 4.564119,4.8661124 A 0.13686217,0.13686217 0 0 0 4.3801461,4.6634332 Z"
         id="path-1-9-8-9-4-2-1-1-2-3-5"
         style="fill:#cccccc;fill-opacity:1;fill-rule:nonzero;stroke:none;stroke-width:1.29414;stroke-linecap:round;stroke-dasharray:none;stroke-opacity:1" /><path
         d="M 3.6466014,2.5985185 C 3.6297725,2.5941456 3.6015452,2.5858979 3.5456399,2.5722548 3.4489544,2.5486596 3.1684543,2.4845032 2.8313527,2.4053926 2.6691016,2.3704125 2.4814455,2.3297206 2.3121307,2.2937872 2.2160855,2.2774569 2.1172969,2.2611058 2.0212418,2.2447728 c -0.09748,-0.016626 0,0 0,0 a 0.03155219,0.03155219 90 0 0 -0.016025,0.061036 c 0,0 -0.093012,-0.033389 0,0 0.049504,0.017771 0.1550144,0.056291 0.276822,0.1010471 0.1900928,0.061106 0.3151886,0.1019765 0.5052714,0.1630794 0.3275982,0.098704 0.6135953,0.1820201 0.7049385,0.2073192 0.055306,0.015318 0.084453,0.021974 0.1010779,0.026294 a 0.10591908,0.10591908 90 0 0 0.053275,-0.2050296 z"
         id="path-1-9-8-9-4-2-1-1-2-3-5-6"
         style="fill:#cccccc;fill-opacity:1;fill-rule:nonzero;stroke:none;stroke-width:1.00157;stroke-linecap:round;stroke-dasharray:none;stroke-opacity:1"
         transform="matrix(-1.2921113,0,0,-1.2921113,10.246034,8.6016089)" /><path
         d="m 5.3789182,5.4071928 c 0.010505,0.006 0.029352,0.017444 0.066331,0.037817 0.055653,0.03066 0.2510801,0.1363022 0.4754829,0.2508309 0.1011861,0.04944 0.2072054,0.099888 0.3221427,0.1538533 0.065995,0.03108 0.2647208,0.1241715 0.3307145,0.1552517 0.059916,0.025849 0.1086231,0.04655 0.1356998,0.057177 0.037532,0.014731 0.063011,0.021595 0.07561,0.025929 0.058423,0.020099 0,0 0,0 a 0.04114851,0.04114851 0 0 0 0.039081,-0.072425 c 0,0 0.048979,0.037856 0,0 -0.010505,-0.00811 -0.030401,-0.025767 -0.063434,-0.048931 -0.02392,-0.016773 -0.068147,-0.045915 -0.123248,-0.081336 C 6.5409247,5.8275506 6.4382727,5.7671457 6.3222923,5.6991064 6.2101241,5.6331119 6.1156074,5.5773585 6.0170085,5.5182629 5.8172322,5.4034485 5.5951643,5.2707864 5.5570682,5.2484207 5.5203451,5.2268619 5.5021057,5.2171 5.4911189,5.2108216 A 0.11308223,0.11308223 0 0 0 5.3789171,5.4071912 Z"
         id="path-1-9-8-9-4-2-1-1-2-3-5-6-6"
         style="fill:#cccccc;fill-opacity:1;fill-rule:nonzero;stroke:none;stroke-width:1.29414;stroke-linecap:round;stroke-dasharray:none;stroke-opacity:1" /><path
         d="m 5.1410532,5.6247045 c 0.00829,0.00698 0.022693,0.020259 0.049698,0.041882 0.055437,0.044389 0.2004739,0.1527172 0.3635573,0.2775625 0.090158,0.064556 0.1913573,0.1381793 0.271331,0.1987137 0.0088,0.00662 0.017368,0.013097 0.025648,0.019407 0.066763,0.050881 0.1503042,0.1169412 0.2255278,0.1766669 0.03637,0.025648 0.069401,0.05047 0.085318,0.061383 0.047515,0.032575 0,0 0,0 a 0.04114851,0.04114851 0 0 0 0.052801,-0.063125 c 0,0 0.040377,0.040941 0,0 C 6.2014088,6.3234805 6.1712264,6.2953835 6.1398113,6.2640239 6.0662398,6.198541 5.991866,6.1307199 5.9297015,6.0708299 5.9222331,6.0636329 5.9145696,6.0561813 5.9067368,6.0484997 5.8337945,5.97748 5.7492563,5.8904746 5.67014,5.8093774 5.5217831,5.6664791 5.3896298,5.5408318 5.3365779,5.4937144 5.3107021,5.4707329 5.2949448,5.4586219 5.2867141,5.4516923 A 0.11308223,0.11308223 0 0 0 5.1410532,5.6247045 Z"
         id="path-1-9-8-9-4-2-1-1-2-3-5-6-6-1"
         style="fill:#cccccc;fill-opacity:1;fill-rule:nonzero;stroke:none;stroke-width:1.29414;stroke-linecap:round;stroke-dasharray:none;stroke-opacity:1" /><path
         d="m 4.9043886,5.6103316 c 0.00289,0.00861 0.007,0.023435 0.017362,0.051612 0.018872,0.051316 0.072501,0.1859489 0.1400516,0.356563 0.074121,0.180072 0.060563,0.1474257 0.1346826,0.3274946 0.03511,0.070584 0.066401,0.1330675 0.080325,0.1614036 0.048494,0.098688 0,0 0,0 a 0.04248666,0.04248666 0 0 0 0.080659,-0.026731 c 0,0 0.020023,0.1080592 0,0 C 5.3516803,6.449415 5.3395771,6.3811114 5.325767,6.303331 5.2966622,6.1875552 5.2676426,6.0712563 5.2390637,5.959676 5.1922647,5.7865761 5.150704,5.6376205 5.1361173,5.589856 5.1273439,5.5611415 5.1216315,5.5467913 5.1187436,5.5382091 a 0.11308223,0.11308223 0 0 0 -0.214355,0.072122 z"
         id="path-1-9-8-9-4-2-1-1-2-3-5-6-6-1-8"
         style="fill:#cccccc;fill-opacity:1;fill-rule:nonzero;stroke:none;stroke-width:1.29414;stroke-linecap:round;stroke-dasharray:none;stroke-opacity:1" /><path
         d="m 4.516093,5.6011973 c 4.807e-4,0.010171 4.67e-4,0.027706 0.00292,0.061485 0.00409,0.056323 0.020491,0.2300668 0.041544,0.4314879 0.013647,0.1048493 0.028779,0.2166645 0.043268,0.3253655 0.016017,0.08663 0.029903,0.1619401 0.036107,0.1970155 0.020511,0.1159592 0,0 0,0 a 0.04248689,0.04248689 0 0 0 0.084858,-0.00443 c 0,0 -0.00833,0.117564 0,0 C 4.72727,6.5770902 4.73328,6.4996093 4.739767,6.4121561 4.742297,6.3068697 4.744897,6.184871 4.747057,6.0840572 4.7462073,5.8762928 4.7463516,5.714295 4.7449232,5.6518882 4.7441481,5.6180207 4.742494,5.6007439 4.742003,5.5905142 a 0.11308223,0.11308223 0 0 0 -0.2259122,0.010673 z"
         id="path-1-9-8-9-4-2-1-1-2-3-5-6-6-1-8-0"
         style="fill:#cccccc;fill-opacity:1;fill-rule:nonzero;stroke:none;stroke-width:1.29414;stroke-linecap:round;stroke-dasharray:none;stroke-opacity:1" /><path
         d="m 4.2051908,5.5466682 c -0.00203,0.00576 -0.00629,0.015419 -0.012262,0.034732 -0.011293,0.036567 -0.036528,0.1318521 -0.067338,0.2504671 -0.025623,0.096733 -0.052763,0.2002182 -0.081207,0.3014376 -0.025116,0.09351 -0.049959,0.179526 -0.068114,0.2387746 -0.0024,0.00784 -0.00483,0.015694 -0.00727,0.02354 -0.00669,0.039442 -0.015437,0.077723 -0.018583,0.093606 -0.010221,0.051571 0,0 0,0 a 0.04114877,0.04114877 0 0 0 0.076519,0.030294 c 0,0 -0.02791,0.044733 0,0 0.00859,-0.013778 0.028434,-0.047807 0.050361,-0.081533 -1.703e-4,3.588e-4 0.010828,-0.022737 0.01066,-0.022383 0.026785,-0.056124 0.066579,-0.137661 0.1083888,-0.2264568 0.044416,-0.096981 0.088175,-0.1961541 0.1283906,-0.2876162 0.048896,-0.109898 0.090423,-0.203805 0.1036648,-0.2371116 0.00744,-0.018728 0.010169,-0.028808 0.012198,-0.034568 A 0.12484302,0.12484302 0 0 0 4.2051765,5.5466682 Z"
         id="path-1-9-8-9-4-2-1-1-2-3-5-6-6-1-8-0-1"
         style="fill:#cccccc;fill-opacity:1;fill-rule:nonzero;stroke:none;stroke-width:1.29414;stroke-linecap:round;stroke-dasharray:none;stroke-opacity:1" /><path
         d="m 0.89871598,2.5740649 c 0.0158054,7.83e-4 0.0445994,0.00333 0.0970164,0.00472 0.0839247,0.00222 0.30105495,0.00364 0.56778155,0.00222 0.2938805,9.591e-4 0.5293728,-5.034e-4 0.8232804,4.567e-4 0.2545334,-0.00319 0.4612913,-0.00362 0.5678215,-0.00331 0.1610957,4.752e-4 0,0 0,0 a 0.03745205,0.03745205 90 0 0 0.00395,-0.0748 c 0,0 0.1605251,0.016503 0,0 C 2.8494212,2.4921383 2.6493763,2.4712524 2.3921299,2.4475682 2.1218222,2.4270099 1.8287983,2.4074675 1.5707454,2.3887691 1.307479,2.367565 1.0886694,2.3484575 1.007,2.3428085 c -0.0524437,-0.00363 -0.080496,-0.0039 -0.0965943,-0.0047 a 0.11812231,0.11812231 90 0 0 -0.0116898,0.2359552 z"
         id="path-1-0"
         style="fill:#cccccc;fill-opacity:1;fill-rule:nonzero;stroke:none;stroke-width:1.00157;stroke-linecap:round;stroke-dasharray:none;stroke-opacity:1"
         transform="matrix(-1.2921113,0,0,-1.2921113,4.3637862,7.9922409)" /></g></g></svg>
