<?xml version="1.0" encoding="UTF-8" standalone="no"?>
<!-- Created with Inkscape (http://www.inkscape.org/) -->

<svg
   width="28.166636"
   height="29.081152"
   viewBox="0 0 7.4524223 7.6943881"
   version="1.1"
   id="svg1"
   xml:space="preserve"
   sodipodi:docname="vector_icons_awareness.svg"
   inkscape:version="1.1.1 (c3084ef, 2021-09-22)"
   xmlns:inkscape="http://www.inkscape.org/namespaces/inkscape"
   xmlns:sodipodi="http://sodipodi.sourceforge.net/DTD/sodipodi-0.dtd"
   xmlns="http://www.w3.org/2000/svg"
   xmlns:svg="http://www.w3.org/2000/svg"><sodipodi:namedview
     id="namedview13"
     pagecolor="#ffffff"
     bordercolor="#666666"
     borderopacity="1.0"
     inkscape:pageshadow="2"
     inkscape:pageopacity="0.0"
     inkscape:pagecheckerboard="0"
     showgrid="false"
     inkscape:zoom="21.491583"
     inkscape:cx="14.075278"
     inkscape:cy="14.540576"
     inkscape:window-width="1404"
     inkscape:window-height="847"
     inkscape:window-x="36"
     inkscape:window-y="25"
     inkscape:window-maximized="1"
     inkscape:current-layer="layer25" /><defs
     id="defs1" /><g
     id="layer25"
     style="display:inline;opacity:1"
     transform="translate(-0.29718322,-0.57029998)"><path
       id="path13"
       style="fill:#cccccc;fill-opacity:1;stroke:#ffffff;stroke-width:0.264999;stroke-linecap:round;stroke-opacity:0"
       d="M 4.437972,0.70279948 C 2.6821923,0.70281356 1.258852,2.1261538 1.2588379,3.8819336 1.2613555,4.387645 1.3844807,4.8854611 1.6179891,5.3340413 1.7239319,5.2665176 1.8411712,5.2199022 1.9637044,5.196582 L 1.9631877,5.195552 C 2.0929595,5.1597745 2.2546736,5.1717403 2.4437785,5.1784953 2.6765227,5.1868053 2.5187978,4.5553015 2.5021729,4.3558065 2.4855487,4.1563078 2.1611003,3.7821337 1.8701701,3.5992635 1.7752137,3.5395767 1.7117188,3.4532537 1.668632,3.3641357 1.8416773,2.4107671 2.4923467,1.6131409 3.3915243,1.25212 3.4462281,1.4755733 3.5725049,1.798716 3.7072673,1.8949748 3.8818254,2.0196589 4.0732046,2.2777289 3.8653971,2.6019084 3.6575897,2.9260876 3.517899,3.2646525 3.7072673,3.4494019 c 0.3408039,0.3324913 0.4158431,0.5989298 0.2495971,0.5989298 -0.1662459,0 -0.6318906,-0.5487715 -0.8480102,-0.4573364 -0.2161198,0.091436 -0.5982725,0.4073944 -0.3322795,0.6650757 0.2659932,0.257681 0.3114591,0.00232 0.6066813,0.4402832 0.270315,0.4010157 0.6234257,0.1664945 0.6816122,0.4407999 0.086311,0.4068934 -0.050126,0.7312216 -0.050126,0.7312216 0,0 0.1828986,0.1165813 0.4821411,0.058394 0.2992425,-0.058186 1.0061162,-0.00854 1.2056112,0.1410767 C 5.9019894,6.2174681 6.5336077,5.2284809 6.3091756,4.9624878 6.0847436,4.6964946 5.8270667,4.5386448 5.9185018,4.2643392 6.0088569,3.9932745 6.4811924,3.6745206 7.2543376,4.00389 7.2214051,4.6077277 6.9951141,5.18496 6.6088989,5.6503011 6.7934042,5.5678834 6.9814195,5.5163195 7.1628703,5.4983724 7.417742,5.0697545 7.5682116,4.5871898 7.60212,4.0896729 7.6084463,4.0483991 7.6160712,3.983388 7.6171061,3.8819336 7.6170961,2.1261536 6.1937517,0.70281356 4.437972,0.70279948 Z m 0.00155,0.33796382 h 0.00103 C 4.4963549,1.1841761 4.5680174,1.4238524 4.5470093,1.6706991 4.5137599,2.0613768 4.3434612,1.6135271 4.0979411,1.5957682 3.8051219,1.5745885 3.6351602,1.4225999 3.4685221,1.2200806 3.7791138,1.1036315 4.1078256,1.0429274 4.439522,1.0407633 Z M 5.6058594,1.2939779 C 6.4713104,1.6874246 7.0800729,2.4906879 7.224882,3.4302816 7.1579313,3.372505 7.0474662,3.2573907 6.8574626,3.0173869 6.6995285,2.8178919 6.3108658,2.9833738 6.3422485,3.1894694 6.3638763,3.3315025 5.8496179,3.5312385 5.7138631,3.3982422 5.6181206,3.3044451 5.5999822,3.1374286 5.5169759,2.8411702 5.4636183,2.6507308 5.5261599,2.6442317 5.799646,2.4597982 5.8620522,2.4177127 5.902625,2.3457081 6.0642293,2.1998657 6.1674389,2.1067225 6.1884661,1.9949721 6.078182,1.8784383 5.990869,1.7861775 5.8021216,1.9614529 5.6275635,1.703772 5.5041557,1.5215987 5.5265626,1.3611765 5.6058594,1.2939779 Z M 2.3130371,5.4105225 C 1.9809066,5.4129886 1.7230327,5.5136849 1.6371094,5.5743368 1.4843566,5.682162 0.48420817,6.6662598 0.48420817,6.6662598 L 1.6076538,7.8165771 c 0,0 1.0180788,-0.057395 1.4459066,0.065629 C 3.3364312,7.9635469 4.4828106,8.1487403 4.905127,8.1307699 5.327443,8.1127992 5.8576446,7.8166034 6.4776408,7.2595052 7.097637,6.7024073 7.5289932,6.1090629 7.4481242,5.9293538 7.3672552,5.7496447 6.8820799,5.7026816 6.6125163,5.9722453 6.3429527,6.2418088 5.6497277,6.966744 5.1314697,7.1484009 5.0136669,7.1896924 4.6297809,7.214771 4.0974243,7.1184285 4.2096053,6.9823576 4.568952,7.0359756 4.8513835,6.9897542 5.1298282,6.9441853 5.6877711,6.6246556 5.7686401,6.5437866 5.8495092,6.4629176 5.690938,6.3176665 5.4213745,6.1918701 5.1518109,6.0660742 4.4790722,6.1412272 4.2813924,6.1412272 4.0837123,6.1412272 3.6886473,5.955913 3.1765503,5.6477173 2.8744445,5.4659006 2.5713608,5.4086044 2.3130371,5.4105225 Z" /></g></svg>
