<?xml version="1.0" encoding="UTF-8" standalone="no"?>
<!-- Created with Inkscape (http://www.inkscape.org/) -->

<svg
   width="26.828863"
   height="22.734886"
   viewBox="0 0 7.09847 6.0152719"
   version="1.1"
   id="svg1"
   xml:space="preserve"
   sodipodi:docname="vector_icons_shark.svg"
   inkscape:version="1.1.1 (c3084ef, 2021-09-22)"
   xmlns:inkscape="http://www.inkscape.org/namespaces/inkscape"
   xmlns:sodipodi="http://sodipodi.sourceforge.net/DTD/sodipodi-0.dtd"
   xmlns="http://www.w3.org/2000/svg"
   xmlns:svg="http://www.w3.org/2000/svg"><sodipodi:namedview
     id="namedview13"
     pagecolor="#ffffff"
     bordercolor="#666666"
     borderopacity="1.0"
     inkscape:pageshadow="2"
     inkscape:pageopacity="0.0"
     inkscape:pagecheckerboard="0"
     showgrid="false"
     inkscape:zoom="27.490791"
     inkscape:cx="13.404489"
     inkscape:cy="11.367443"
     inkscape:window-width="1404"
     inkscape:window-height="847"
     inkscape:window-x="36"
     inkscape:window-y="25"
     inkscape:window-maximized="1"
     inkscape:current-layer="layer7" /><defs
     id="defs1" /><g
     id="layer7"
     style="display:inline;opacity:1"
     transform="translate(-0.64378535,-1.2279872)"><path
       id="path4"
       style="fill:#cccccc;fill-opacity:1;stroke-width:0.264583"
       d="M 5.5686523,1.2288656 C 5.2707679,1.206034 4.8067799,1.6340323 4.5945516,1.8407145 3.5966464,1.4231935 2.777583,1.4088957 2.1791951,1.4226522 1.599838,1.4359713 0.83363808,1.5364691 1.002006,2.2448242 c 0.2161185,0.909251 1.6991211,1.7311605 1.6991211,1.7311605 0,0 -0.4944246,0.5769987 -0.640271,0.938444 -0.1458463,0.3614453 0.2030884,0.2030884 0.2030884,0.2030884 0,0 1.1325959,-0.4931432 1.3735596,-0.5565552 0.2094609,0.094102 0.5704333,0.4859613 0.3576009,0.8035685 -0.4241473,0.6329501 -1.2428182,0.4376994 -1.2428182,0.4376994 0,0 0.088993,0.058578 -0.4309815,-0.2775024 C 1.8013314,5.1886469 1.1223699,4.7560947 0.84335937,4.6482951 0.56434892,4.5404957 0.65939128,4.7557821 0.65939128,4.7557821 c 0,0 0.15584714,0.3700452 0.28267008,0.649056 C 1.0452572,5.6287175 1.2242147,5.4963053 1.2242147,5.4963053 1.4828435,5.7753506 1.7602318,6.0904272 1.99316,6.4171794 1.70914,6.7624675 1.3976862,7.0898398 1.5585612,7.2414185 1.8536739,7.2766196 2.431988,6.7980462 3.0597616,6.5634237 3.6717837,6.509942 4.3636249,6.4014921 4.7733521,6.2812703 6.162376,5.8737041 6.4543513,4.8600095 6.4931437,4.7232259 6.7501644,4.7632853 7.2888119,5.2606689 7.3266846,5.2906331 7.5631103,5.4776895 7.847834,5.7460645 7.702889,5.4162069 7.4997051,4.9538117 6.9732394,4.3626792 6.5050293,3.8943359 6.3523163,3.317688 6.1094038,2.9969693 5.7970622,2.5920898 5.7685003,2.2339778 5.8205819,1.4851059 5.6849243,1.2686564 5.6503569,1.2450353 5.6112073,1.2321272 5.5686523,1.2288656 Z M 2.968811,1.9435506 A 0.13372572,0.13372572 0 0 1 3.102653,2.0773926 0.13372572,0.13372572 0 0 1 2.968811,2.2107178 0.13372572,0.13372572 0 0 1 2.8349691,2.0773926 0.13372572,0.13372572 0 0 1 2.968811,1.9435506 Z" /></g></svg>
