<?xml version="1.0" encoding="UTF-8" standalone="no"?>
<!-- Created with Inkscape (http://www.inkscape.org/) -->

<svg
   width="25.640158"
   height="18.091574"
   viewBox="0 0 6.7839583 4.7867288"
   version="1.1"
   id="svg1"
   xml:space="preserve"
   sodipodi:docname="vector_icons_coral.svg"
   inkscape:version="1.1.1 (c3084ef, 2021-09-22)"
   xmlns:inkscape="http://www.inkscape.org/namespaces/inkscape"
   xmlns:sodipodi="http://sodipodi.sourceforge.net/DTD/sodipodi-0.dtd"
   xmlns="http://www.w3.org/2000/svg"
   xmlns:svg="http://www.w3.org/2000/svg"><sodipodi:namedview
     id="namedview13"
     pagecolor="#ffffff"
     bordercolor="#666666"
     borderopacity="1.0"
     inkscape:pageshadow="2"
     inkscape:pageopacity="0.0"
     inkscape:pagecheckerboard="0"
     showgrid="false"
     inkscape:zoom="34.54647"
     inkscape:cx="12.808834"
     inkscape:cy="9.0457869"
     inkscape:window-width="1404"
     inkscape:window-height="847"
     inkscape:window-x="36"
     inkscape:window-y="25"
     inkscape:window-maximized="1"
     inkscape:current-layer="layer15" /><defs
     id="defs1" /><g
     id="layer15"
     style="display:inline;opacity:1"
     transform="translate(-0.93313607,-1.5381653)"><path
       id="path9"
       style="fill:#cccccc;fill-opacity:1;stroke-width:0.264583"
       d="m 4.492749,1.5384074 c -0.1153958,-0.00129 -0.2337367,0.00258 -0.3550171,0.011369 -0.013843,0.047681 -0.028231,0.096955 -0.041858,0.1576131 -0.04825,0.21478 -0.086764,0.5091059 -0.080098,0.8821167 0.2579137,-0.028567 0.4470011,0.060978 0.4470011,0.060978 a 0.1324995,0.1324995 0 0 1 0.062528,0.1777669 0.1324995,0.1324995 0 0 1 -0.177767,0.060461 c 0,0 -0.1281668,-0.062115 -0.3198771,-0.03359 0.0065,0.090438 0.01467,0.1832815 0.026872,0.2816365 0.014149,0.1140502 -0.036222,0.2230922 -0.1090373,0.2893881 -0.072813,0.066297 -0.1623272,0.101835 -0.252181,0.1229899 -0.089853,0.021155 -0.180631,0.027517 -0.2656168,0.021187 C 3.3427116,3.5639937 3.2655243,3.5495017 3.1936035,3.5000448 3.0982639,3.4344847 3.065176,3.3365918 3.041158,3.238562 3.0171392,3.1405325 3.0058269,3.0344502 2.9998169,2.931604 2.9938079,2.8287577 2.9918481,2.7297772 2.9884481,2.6546183 c -0.00157,-0.034771 -0.00338,-0.062829 -0.00568,-0.083199 -0.010228,-0.00279 -0.027542,-0.00693 -0.054777,-0.00103 -0.053036,0.011483 -0.1340711,0.065605 -0.214974,0.160197 -0.035163,0.2585086 0.035915,0.7620344 0.066146,0.9358602 C 2.8035481,3.8066605 2.7445921,3.933246 2.6680588,4.0255977 2.5915208,4.1179459 2.4953055,4.1857066 2.3869344,4.2131795 2.2714482,4.2424562 2.1720397,4.1787028 2.1073649,4.113444 2.0426901,4.0481846 1.9935089,3.9695285 1.9513021,3.8907186 1.8720009,3.7426435 1.8265507,3.6096128 1.8205607,3.5920288 1.8064197,3.6044588 1.7943047,3.6110208 1.7637167,3.6581748 1.6742547,3.7960861 1.6419232,3.918144 1.6619142,4.0374799 1.6819042,4.1568157 1.7576312,4.2874354 1.927531,4.431771 L 2.021582,4.51187 1.947168,4.609539 C 1.7393862,4.8942758 1.6049987,5.299685 1.523938,5.6192952 1.6484314,5.7321107 1.7844227,5.8253567 1.9244303,5.9009318 1.9396983,5.7312343 1.9715997,5.4941612 2.0469035,5.2596273 2.1133846,5.0525714 2.210112,4.8475138 2.3807332,4.7149577 2.5321468,4.5973241 2.7461214,4.5585432 2.9801799,4.635376 3.0294476,4.546478 3.0931624,4.466817 3.1770671,4.4059326 3.2950401,4.3203268 3.4518026,4.2784187 3.6256185,4.2979289 c 0.110594,0.012414 0.1876632,0.092129 0.2325439,0.171049 0.044881,0.07892 0.069838,0.1686959 0.0894,0.2614827 0.033751,0.1600846 0.042063,0.3134893 0.050126,0.4289144 0.064485,-0.00726 0.1892752,-0.00779 0.3317627,0.00362 0.00415,-0.010955 0.00731,-0.014648 0.011886,-0.032039 C 4.3591595,5.0632 4.3745712,4.9578645 4.3857788,4.8519002 4.408193,4.6399715 4.4147176,4.4229858 4.4147176,4.4229858 l 0.00207,-0.093018 0.091467,-0.026355 c 0,0 0.1217194,-0.036577 0.2692342,-0.037724 0.1475146,-0.00115 0.3523671,0.035364 0.4563029,0.2144572 0.068669,0.1183245 0.062506,0.2487198 0.050126,0.3849894 -0.010438,0.114891 -0.034522,0.2297619 -0.056327,0.3358968 0.00111,3.956e-4 9.149e-4,-3.933e-4 0.00207,0 0.05191,0.017677 0.138,0.037983 0.2242758,0.083199 8.111e-4,-2.951e-4 0.0031,-7.361e-4 0.012402,-0.00362 0.021671,-0.00671 0.060472,-0.02599 0.1049032,-0.056844 C 5.6600989,5.1622624 5.7737465,5.0568217 5.8854289,4.9392334 6.0910482,4.7227407 6.2903377,4.4683632 6.3949585,4.3335856 6.2626178,4.1912236 6.1463949,4.0974243 6.1463949,4.0974243 A 0.1324995,0.1324995 0 0 1 6.1252075,3.9103556 0.1324995,0.1324995 0 0 1 6.3107259,3.8886515 c 0,0 0.2845003,0.2808481 0.4976441,0.5803264 C 6.871384,4.4332019 6.9325113,4.3990939 6.9453125,4.3377197 6.9628785,4.2534997 6.9378025,4.1414722 6.9158565,4.0974243 6.8441824,3.9535687 6.6362566,3.6049888 6.4316488,3.4333822 6.3680448,3.3800371 6.3467897,3.2877732 6.3572347,3.2204753 6.3676807,3.1531778 6.3965818,3.0964709 6.4316488,3.039091 6.5017829,2.9243308 6.6051174,2.8075889 6.7148356,2.6954427 6.774648,2.6343067 6.8343153,2.5777498 6.8920858,2.5243937 6.6987615,2.3226316 6.4677853,2.1390774 6.2016886,1.9859253 6.1188042,2.18484 6.0225276,2.4491247 5.9236694,2.80448 5.7834201,3.3086207 5.724236,3.5464361 5.6818237,3.6778117 c -0.021206,0.065688 -0.037676,0.1099399 -0.076481,0.1539958 -0.038805,0.044056 -0.085626,0.06091 -0.107487,0.07028 -0.1021654,0.043785 -0.2197428,0.045815 -0.3493327,0 C 5.0189332,3.8562724 4.885989,3.7236573 4.880839,3.5331177 4.876291,3.3648782 4.913818,3.0735459 4.951119,2.8086141 4.982072,2.5887686 5.003797,2.4584041 5.013647,2.3983032 4.974651,2.3801972 4.900828,2.3554122 4.761466,2.3554122 H 4.697387 L 4.658113,2.3047692 C 4.577409,2.2003289 4.59309,2.0959073 4.605403,1.9823082 4.617717,1.8687091 4.64588,1.7438788 4.67775,1.6252241 4.68543,1.5966361 4.693188,1.5736431 4.701004,1.5466761 4.632587,1.5423261 4.563394,1.5391961 4.492748,1.5384061 Z m 0.4769735,0.034623 c -0.012387,0.040988 -0.024166,0.075702 -0.036173,0.1204061 -0.029847,0.1111223 -0.054836,0.2261929 -0.064596,0.3162598 -0.00732,0.067555 -0.00132,0.086698 -0.00155,0.099735 0.1044039,0.01135 0.2117342,0.02282 0.2692342,0.050643 0.039994,0.019352 0.070858,0.04182 0.091984,0.060461 0.021127,0.018641 0.038757,0.042891 0.038757,0.042891 l 0.029456,0.043408 -0.00775,0.05271 c 0,0 -0.039205,0.2251886 -0.075964,0.4862752 -0.03676,0.2610866 -0.069712,0.5667351 -0.066663,0.6795451 0.00245,0.09051 0.031508,0.1064751 0.089917,0.127124 0.058409,0.02065 0.1539499,0.00747 0.1581299,0.00568 0.01,-0.00429 0.010238,-0.00417 0.012919,-0.00517 0.00416,-0.00872 0.012149,-0.026162 0.022221,-0.057361 C 5.4650887,3.4858505 5.5270713,3.2403188 5.6678711,2.7342 5.7729258,2.3565711 5.8752616,2.0747938 5.9644938,1.8624186 5.6697538,1.7242092 5.3375536,1.6228235 4.9697225,1.5730304 Z M 3.8555786,1.578715 C 3.7306016,1.5955455 3.6033157,1.6178616 3.4726562,1.6458944 2.9309328,1.7621204 2.497445,1.9555912 2.1518066,2.183846 2.133558,2.2512191 2.1201076,2.3207587 2.1130493,2.3869344 2.0945603,2.5602801 2.1073649,2.6975098 2.1073649,2.6975098 A 0.13249999,0.13249999 0 0 1 1.9864421,2.841687 0.13249999,0.13249999 0 0 1 1.8438151,2.7207642 c 0,0 -0.01146,-0.1344038 0.00207,-0.3085083 C 1.5344952,2.6764426 1.318175,2.9655203 1.1756388,3.2282267 1.0061317,3.5406428 0.91430825,3.9627526 0.93637695,4.3620076 0.9603954,4.7965363 1.1111703,5.1404434 1.324467,5.4069051 1.410334,5.1303904 1.5323327,4.8148865 1.7011882,4.5470093 1.5523119,4.3988682 1.4282187,4.2462499 1.4004313,4.0803711 1.3675469,3.8840648 1.4270324,3.6896724 1.5409912,3.5139974 c 0.05692,-0.087746 0.1105741,-0.1453992 0.1777669,-0.181901 0.067193,-0.036502 0.1557149,-0.035867 0.2129069,-0.00568 0.1143843,0.060364 0.1328085,0.162264 0.1328085,0.162264 0,0 0.048338,0.1443471 0.1193725,0.2769857 0.035517,0.066319 0.077863,0.1287216 0.1111044,0.162264 0.020279,0.020462 0.029013,0.024683 0.031006,0.025838 0.035234,-0.010155 0.098093,-0.046745 0.1390096,-0.096118 C 2.50713,3.8067711 2.524906,3.7524429 2.517676,3.710889 2.4858178,3.5276984 2.3863282,2.999809 2.4510132,2.6468669 l 0.0062,-0.029456 0.01912,-0.025322 c 0.1222666,-0.1628517 0.2628823,-0.2525547 0.394808,-0.2811197 0.1319254,-0.028565 0.2662327,-0.009 0.3400309,0.1069702 0.031741,0.049879 0.028604,0.079444 0.033073,0.1136881 0.00447,0.034244 0.00797,0.07029 0.00982,0.1111043 0.00369,0.081628 0.00424,0.1779167 0.00982,0.2733684 0.00558,0.095452 0.01593,0.1899639 0.033073,0.2599324 0.017143,0.069969 0.046549,0.1071592 0.047026,0.107487 4.016e-4,2.761e-4 0.046355,0.019008 0.1033529,0.023254 0.056998,0.00425 0.1252706,-0.00132 0.1855184,-0.015503 0.060247,-0.014185 0.1110135,-0.038735 0.1348755,-0.060462 0.023862,-0.021727 0.027404,-0.027042 0.023254,-0.060461 -0.083664,-0.6743849 -0.029319,-1.1820291 0.047026,-1.5218709 0.00564,-0.025126 0.011686,-0.046553 0.01757,-0.069763 z m 3.21014,1.1461833 C 7.0126742,2.7741434 6.9583786,2.8258781 6.9044881,2.8809611 6.801745,2.9859777 6.7076625,3.0963082 6.6579915,3.1775838 c -0.023641,0.038685 -0.03438,0.067055 -0.03669,0.078031 0.2527555,0.2243432 0.4512262,0.5644396 0.5312337,0.7250204 0.052313,0.1049949 0.083924,0.2502252 0.050643,0.4097941 -0.033282,0.1595693 -0.1577908,0.328565 -0.3787886,0.3849898 L 6.7225871,4.8007406 6.6740112,4.7087565 C 6.6422761,4.6501686 6.6050019,4.5934515 6.5654907,4.5392578 6.4523011,4.6837594 6.2701403,4.9107022 6.0771484,5.1138997 5.9589829,5.238314 5.8401754,5.3522084 5.7241984,5.4327433 5.6662104,5.4730115 5.6088128,5.5062771 5.5459147,5.5257609 5.4830164,5.5452446 5.4051476,5.5506804 5.3345581,5.512325 5.2877593,5.4868973 5.2137069,5.4684199 5.1423218,5.4441121 5.1066291,5.4319578 5.0723244,5.4193548 5.0317342,5.3888184 4.9911441,5.3582821 4.9457694,5.2797286 4.959904,5.2126017 4.9847216,5.0947397 5.0113636,4.9587392 5.0219157,4.8425985 5.0324677,4.726458 5.0175569,4.6293441 5.0048625,4.6074707 4.9672305,4.5426257 4.8833375,4.520881 4.7795532,4.5216878 c -0.058502,4.546e-4 -0.073588,0.00813 -0.1105875,0.015503 -0.00282,0.071474 -0.00307,0.1702808 -0.021187,0.3415812 -0.011878,0.1123144 -0.028435,0.2244919 -0.05271,0.3167765 -0.012137,0.046142 -0.025337,0.085832 -0.050126,0.127124 -0.012395,0.020645 -0.027763,0.043935 -0.056327,0.064596 -0.028564,0.020662 -0.075789,0.036578 -0.1204061,0.029972 -0.1746864,-0.025879 -0.2805712,-0.01074 -0.3627685,-0.00155 -0.041099,0.00459 -0.075639,0.015292 -0.1415935,-0.00568 C 3.8308698,5.3995173 3.7914436,5.3711075 3.7708293,5.3376587 3.7502158,5.3042098 3.745944,5.2730938 3.7439575,5.2467082 3.7351367,5.1296814 3.7223006,4.9387135 3.6891805,4.7816203 3.6726204,4.7030739 3.6499256,4.6340514 3.6271688,4.5940348 3.604412,4.5540183 3.5944853,4.5542878 3.5940959,4.554244 3.475651,4.5409492 3.3998971,4.5654557 3.3341634,4.6131551 3.2684293,4.6608543 3.212678,4.7394777 3.1713826,4.8425985 3.088788,5.0488403 3.0698656,5.3447642 3.0918009,5.5882894 A 0.13160221,0.12871246 0 0 1 2.9734619,5.7283325 0.13160221,0.12871246 0 0 1 2.8298014,5.611027 C 2.8092533,5.3828991 2.8164154,5.118361 2.8825114,4.880839 2.7257256,4.8277172 2.6320957,4.8561156 2.5450643,4.9237305 2.4443682,5.0019617 2.3569867,5.1593889 2.2990845,5.3397257 2.2179894,5.5922924 2.1913282,5.8706388 2.181779,6.0192708 c 0.011572,0.00445 0.023072,0.00973 0.034623,0.013953 0.5348375,0.1955048 1.103364,0.2696308 2.0009116,0.2687171 1.0069901,-0.00103 1.7663823,0.097477 2.2458578,-0.1059367 C 7.4221225,5.7891765 7.6508913,5.1827712 7.6982381,4.7547485 7.7526144,4.2631796 7.7098595,3.756426 7.2936117,3.0525269 7.2276419,2.9409682 7.1509026,2.8314356 7.0657186,2.7248983 Z" /></g></svg>
