<?xml version="1.0" encoding="UTF-8" standalone="no"?>
<!-- Created with Inkscape (http://www.inkscape.org/) -->

<svg
   width="25.676571"
   height="23.044548"
   viewBox="0 0 6.7935927 6.0972033"
   version="1.1"
   id="svg1"
   xml:space="preserve"
   sodipodi:docname="vector_icons_gastro.svg"
   inkscape:version="1.1.1 (c3084ef, 2021-09-22)"
   xmlns:inkscape="http://www.inkscape.org/namespaces/inkscape"
   xmlns:sodipodi="http://sodipodi.sourceforge.net/DTD/sodipodi-0.dtd"
   xmlns="http://www.w3.org/2000/svg"
   xmlns:svg="http://www.w3.org/2000/svg"><sodipodi:namedview
     id="namedview271"
     pagecolor="#ffffff"
     bordercolor="#666666"
     borderopacity="1.0"
     inkscape:pageshadow="2"
     inkscape:pageopacity="0.0"
     inkscape:pagecheckerboard="0"
     showgrid="false"
     inkscape:zoom="27.121382"
     inkscape:cx="12.84964"
     inkscape:cy="11.522274"
     inkscape:window-width="1296"
     inkscape:window-height="847"
     inkscape:window-x="36"
     inkscape:window-y="25"
     inkscape:window-maximized="0"
     inkscape:current-layer="layer11" /><defs
     id="defs1" /><g
     id="layer11"
     style="display:inline;opacity:1"
     transform="translate(-0.76128496,-1.1027996)"><path
       style="fill:#cccccc;fill-opacity:1;stroke-width:0.264583"
       d="M 2.5927794,4.8779494 C 2.6772891,4.7559133 2.7404405,4.6009035 2.7192695,4.4421233 2.6980978,4.2833429 2.734273,3.3220668 3.2383502,2.9590665 3.74429,2.5947249 4.212968,2.7733609 4.212968,2.7733609 c 0,0 0.021169,-0.3547892 0.4128286,-0.502984 0.3916577,-0.1481949 0.6668767,-0.036869 0.6668767,-0.036869 0,0 -0.010739,-0.2451258 0.1903831,-0.3615646 C 5.6841781,1.7555044 5.9162448,1.7952725 6.0939501,1.8398589 6.0665828,1.7049615 6.163045,1.5524321 6.2691918,1.4888324 6.4840177,1.3601157 6.7029623,1.4511743 6.7029623,1.4511743 c 0,0 0.02566,-0.1886465 0.2003458,-0.2205823 0.1605266,-0.029347 0.2435332,0.028551 0.2435332,0.028551 0,0 0.00567,-0.1664445 0.1962057,-0.1558591 0.1905362,0.010585 0.2851907,0.1605963 0.1442355,0.247681 -0.062614,0.038684 -0.090962,0.035106 -0.090962,0.035106 0,0 0.093702,0.1462582 -0.00844,0.2862435 -0.070885,0.097147 -0.1477547,0.063985 -0.1477547,0.063985 0,0 0.097107,0.1491328 -0.00648,0.3305593 -0.1057344,0.1851915 -0.3281853,0.189284 -0.3281853,0.189284 0,0 0.1229254,0.2550657 -0.030515,0.4197351 -0.1534395,0.1646682 -0.374246,0.1833805 -0.374246,0.1833805 0,0 0.1440119,0.2076344 -0.024397,0.4471535 -0.168412,0.2395191 -0.3448209,0.2357677 -0.3448209,0.2357677 0,0 0.2945907,0.4030331 -0.2834963,0.9833158 C 5.5391521,4.8355011 5.119725,4.8802006 5.119725,4.8802006 c 0,0 0.1047895,0.6287376 -0.2769442,0.9094237 C 4.4610461,6.070311 3.8883873,6.0211117 3.36876,5.9839542 3.0480114,5.9610181 1.9498385,6.9048854 1.9498385,6.9048854 c 0,0 -0.3338733,0.2735176 -0.5202454,0.2918739 C 1.0898463,7.2302218 1.0683908,6.9953875 1.2462713,6.9238975 1.4145832,6.8562531 1.7537433,6.6617315 2.1813335,6.2279445 2.6089237,5.7941572 2.8877868,5.6206424 3.1480593,5.5896575 3.4083315,5.5586727 3.9453117,5.6429601 4.1085878,5.5648687 4.310678,5.4682133 4.5460184,5.2394623 4.5076246,4.9278082 4.4545495,4.4969821 4.043968,4.6074613 3.9326202,4.6588862 3.7761242,4.7311624 3.6858818,4.8560702 3.5583065,5.0679288 3.3817873,5.3610663 3.315377,5.5276868 2.7948326,5.5400807 2.2742879,5.5524738 2.0697882,5.9676709 1.9148642,6.1349889 1.7599402,6.3023069 1.2207831,6.959163 1.0534652,7.0025417 0.88614732,7.0459204 0.78183631,7.0695916 0.76222973,6.8972149 0.747809,6.7704311 0.90192112,6.663502 0.9890211,6.5935424 1.070808,6.5278503 0.9853202,6.4572308 0.9853202,6.4572308 c 0,0 -0.0481615,-0.1583021 0.321749,-0.3451016 C 1.6769798,5.9253297 2.5082697,4.9999855 2.5927794,4.8779494 Z"
       id="path7" /></g></svg>
