<?xml version="1.0" encoding="UTF-8" standalone="no"?>
<!-- Created with Inkscape (http://www.inkscape.org/) -->

<svg
   width="29.873358"
   height="16.610241"
   viewBox="0 0 7.9039925 4.3947929"
   version="1.1"
   id="svg1"
   xml:space="preserve"
   sodipodi:docname="vector_icons_crab.svg"
   inkscape:version="1.1.1 (c3084ef, 2021-09-22)"
   xmlns:inkscape="http://www.inkscape.org/namespaces/inkscape"
   xmlns:sodipodi="http://sodipodi.sourceforge.net/DTD/sodipodi-0.dtd"
   xmlns="http://www.w3.org/2000/svg"
   xmlns:svg="http://www.w3.org/2000/svg"><sodipodi:namedview
     id="namedview142"
     pagecolor="#ffffff"
     bordercolor="#666666"
     borderopacity="1.0"
     inkscape:pageshadow="2"
     inkscape:pageopacity="0.0"
     inkscape:pagecheckerboard="0"
     showgrid="false"
     inkscape:zoom="37.627389"
     inkscape:cx="14.949217"
     inkscape:cy="8.3051205"
     inkscape:window-width="1296"
     inkscape:window-height="847"
     inkscape:window-x="36"
     inkscape:window-y="25"
     inkscape:window-maximized="0"
     inkscape:current-layer="layer5" /><defs
     id="defs1" /><g
     id="layer5"
     style="display:inline;opacity:1"
     transform="translate(-0.30078013,-1.9994869)"><path
       id="path2"
       style="opacity:1;fill:#cccccc;fill-opacity:1;stroke-width:0.264583"
       d="M 4.3811279,1.9998779 C 3.8435905,1.9920023 3.4594884,2.1046589 3.2235758,2.1962484 2.8804308,2.3294694 2.5080369,2.5961566 2.1962484,2.8256673 1.9055841,3.0396283 1.5945934,3.1660873 1.5006836,3.2029053 1.4090274,3.2388393 1.2704685,3.2719296 1.2004435,3.3315796 1.0521048,3.4579402 1.5854329,3.8736654 1.5854329,3.8736654 1.5894694,3.9180718 0.85739236,3.6497287 0.57309163,3.8633301 0.11929026,4.2042809 0.35502057,4.8078815 0.41961263,4.8684367 0.6295368,4.1498503 0.95977878,4.2506731 1.2185303,4.256071 0.96289623,4.3867994 0.79097162,4.6221909 0.82578939,4.9723063 0.87512582,5.4684166 1.497583,5.8332357 1.497583,5.8332357 c 0,0 -0.1611645,-0.5929715 -0.1369425,-0.9038208 C 1.3848624,4.6185658 1.8051082,4.4988777 2.0102132,4.5134196 1.7356971,4.8606016 1.5402423,5.3381757 2.0246826,5.9396891 2.509123,6.5412025 3.9151843,6.4752691 4.1098267,6.1484619 3.3562069,6.046945 3.223561,5.8857118 3.4597371,5.8425374 3.8960718,5.7627731 4.2413498,5.8820865 4.3620076,5.9877482 4.6166961,5.126309 3.5672395,4.7129114 3.51038,4.6911865 4.2864297,4.7271589 5.0671944,4.6583571 5.6234294,4.4173014 5.4325374,4.5720036 5.0556793,4.8926711 5.067391,5.3733154 5.071081,5.5247338 5.12017,5.6243787 5.2074341,5.6802734 5.3512117,5.5626263 5.8583776,5.4478927 6.0347738,5.5376465 6.2224761,5.6331535 5.4348104,5.8761271 5.4348104,5.8761271 c 0,0 1.0080202,0.3890854 1.7306437,-0.3214274 C 7.8880779,4.8441872 7.7140779,4.1754289 7.4445068,3.9723674 7.0840584,3.7008496 6.5320362,3.8268302 6.6450724,3.7703125 6.7581085,3.7137945 7.13175,3.4120431 7.450708,3.6147664 7.7529283,3.8068514 8.0316663,4.1487573 8.0723755,4.4514079 8.466091,3.7665349 7.8768317,3.2056097 7.6630981,3.1042033 7.4688904,3.0120609 7.2377454,3.0587497 7.1080933,3.1062703 6.9499413,3.1642368 6.7661928,3.2660102 6.584611,3.3791219 6.7362793,3.1825959 6.8435099,2.9853475 6.8435099,2.9853475 6.9560996,2.7503623 6.9139005,2.5777119 6.8156047,2.5853719 6.6567904,2.5977456 6.4104839,2.5174698 6.2368286,2.4561808 6.0435748,2.3879751 5.6687483,2.1980967 5.2095011,2.0985799 4.9014196,2.0318201 4.6254632,2.0034578 4.3811279,1.9998779 Z m 0.7880656,1.1032919 c 0.1689337,-0.00155 0.2428496,0.2199944 0.135909,0.3674194 -0.1409852,0.1943581 -0.5498372,0.3121256 -0.5498372,0.3121256 0,0 0.012316,-0.4381471 0.234611,-0.6066813 0.067064,-0.050845 0.1276029,-0.072388 0.1793172,-0.072864 z M 3.5796265,3.319694 c 0.06003,1.098e-4 0.1257561,0.021912 0.1896525,0.073897 0.2151141,0.1750138 0.2750073,0.3624733 0.3286621,0.4966105 0,0 -0.4222253,-6.827e-4 -0.6573242,-0.1881022 C 3.2488247,3.549204 3.3835289,3.3193353 3.5796265,3.319694 Z" /></g></svg>
