<?xml version="1.0" encoding="UTF-8" standalone="no"?>
<!-- Created with Inkscape (http://www.inkscape.org/) -->

<svg
   width="28.579992"
   height="21.497242"
   viewBox="0 0 7.5617896 5.6878119"
   version="1.1"
   id="svg1"
   xml:space="preserve"
   sodipodi:docname="vector_icons_hurricane 1 trace.svg"
   inkscape:version="1.1.1 (c3084ef, 2021-09-22)"
   xmlns:inkscape="http://www.inkscape.org/namespaces/inkscape"
   xmlns:sodipodi="http://sodipodi.sourceforge.net/DTD/sodipodi-0.dtd"
   xmlns="http://www.w3.org/2000/svg"
   xmlns:svg="http://www.w3.org/2000/svg"><sodipodi:namedview
     id="namedview13"
     pagecolor="#ffffff"
     bordercolor="#666666"
     borderopacity="1.0"
     inkscape:pageshadow="2"
     inkscape:pageopacity="0.0"
     inkscape:pagecheckerboard="0"
     showgrid="false"
     inkscape:zoom="29.073497"
     inkscape:cx="14.291366"
     inkscape:cy="10.748621"
     inkscape:window-width="1404"
     inkscape:window-height="847"
     inkscape:window-x="36"
     inkscape:window-y="25"
     inkscape:window-maximized="1"
     inkscape:current-layer="layer22" /><defs
     id="defs1" /><g
     id="layer22"
     style="display:inline;opacity:1"
     transform="translate(-0.39470727,-1.7150467)"><path
       id="path3"
       style="fill:#cccccc;fill-opacity:1;stroke:#ffffff;stroke-width:0.264999;stroke-linecap:round;stroke-opacity:0"
       d="M 4.799707,1.848466 C 2.6039393,1.8923568 1.0828157,3.440453 1.0226766,3.6209676 1.3052147,3.4372448 1.7054202,3.0839853 2.6814901,2.7533203 3.5299931,2.4658715 4.2555542,2.6215454 4.2555542,2.6215454 c 0,0 -1.0868716,0.014928 -1.8324463,0.6345866 C 3.909944,2.8365643 4.3072891,3.1230654 4.490682,3.220992 4.041729,3.1472489 2.3195257,3.4570685 1.3317017,4.6948039 0.62562214,5.5795158 1.2692312,6.2611375 1.4107666,6.3598185 0.64966384,6.3289618 0.59944661,5.4782186 0.59944661,5.4782186 c 0,0 -0.47412187,1.2770567 1.00769039,1.6691488 1.5013719,0.3972674 2.7424683,-0.2935222 2.7424683,-0.2935222 0,0 -0.8915501,0.1146966 -1.7657837,-0.054777 1.7997309,-0.2001439 2.0531047,-0.6480225 2.0531047,-0.6480225 0.00109,0.00217 -1.3195312,0.3608389 -2.1797119,0.1498617 -0.8871318,-0.2175875 -0.81132,-1.0345622 -0.81132,-1.0345622 0,0 0.1751774,0.9167648 1.1317138,0.7482748 C 1.4609627,5.2504949 2.3330551,4.530941 2.5745199,4.4229858 2.1526722,5.1626954 2.668376,5.7603719 3.8674642,5.7603719 c 1.1990879,0 2.5243749,-0.8194076 2.7863932,-1.0578166 C 6.4660815,5.3336193 5.2534722,6.2064738 4.8617187,6.4264811 5.0786399,6.4506986 6.8206195,5.8131894 7.5158203,4.4632935 8.3630168,2.818262 7.2340012,2.0177036 6.9561646,2.1073649 7.1054099,2.1499235 7.7391966,3.0308259 6.593396,4.0286947 5.7894499,4.7288452 4.7974076,4.897342 4.1263631,4.9376831 6.1265136,4.5469377 7.9441755,2.0610115 5.2477417,1.8608683 5.0955919,1.849575 4.9460916,1.8455399 4.799707,1.848466 Z m 0.3886068,0.5477702 c 0.2669245,4.793e-4 0.7998672,0.0599 0.7921997,0.5276163 -0.00942,0.5747065 -0.7973673,0.9916708 -0.7973673,0.9916708 0,0 0.5993115,-0.5511483 0.4702555,-0.9813355 C 5.500052,2.4230216 5.0400024,2.4024373 5.0400024,2.4024373 c 0,0 0.059337,-0.00636 0.1483114,-0.0062 z M 4.2343669,3.7708293 A 0.36782735,0.89741806 60.180049 0 1 4.5056681,3.8741821 0.36782735,0.89741806 60.180049 0 1 3.907255,4.6395101 0.36782735,0.89741806 60.180049 0 1 2.9471069,4.7645671 0.36782735,0.89741806 60.180049 0 1 3.54552,3.9987223 0.36782735,0.89741806 60.180049 0 1 4.2343669,3.7708293 Z" /></g></svg>
