<?xml version="1.0" encoding="UTF-8" standalone="no"?>
<!-- Created with Inkscape (http://www.inkscape.org/) -->

<svg
   width="26.120283"
   height="20.440685"
   viewBox="0 0 6.9109915 5.4082646"
   version="1.1"
   id="svg1"
   xml:space="preserve"
   sodipodi:docname="vector_icons_turtle.svg"
   inkscape:version="1.1.1 (c3084ef, 2021-09-22)"
   xmlns:inkscape="http://www.inkscape.org/namespaces/inkscape"
   xmlns:sodipodi="http://sodipodi.sourceforge.net/DTD/sodipodi-0.dtd"
   xmlns="http://www.w3.org/2000/svg"
   xmlns:svg="http://www.w3.org/2000/svg"><sodipodi:namedview
     id="namedview13"
     pagecolor="#ffffff"
     bordercolor="#666666"
     borderopacity="1.0"
     inkscape:pageshadow="2"
     inkscape:pageopacity="0.0"
     inkscape:pagecheckerboard="0"
     showgrid="false"
     inkscape:zoom="30.576274"
     inkscape:cx="13.065686"
     inkscape:cy="10.220343"
     inkscape:window-width="1404"
     inkscape:window-height="847"
     inkscape:window-x="36"
     inkscape:window-y="25"
     inkscape:window-maximized="1"
     inkscape:current-layer="layer17" /><defs
     id="defs1" /><g
     id="layer17"
     style="display:inline;opacity:1"
     transform="translate(-0.85902112,-1.5707988)"><path
       id="path23"
       style="fill:#cccccc;fill-opacity:1;fill-rule:nonzero;stroke:none;stroke-width:0.264999;stroke-linecap:round;stroke-dasharray:none;stroke-opacity:1"
       d="m 4.9495687,1.5719971 c -0.037015,-0.00184 -0.072386,-0.00161 -0.1064535,0.00103 -0.5391271,0.041764 -0.7805564,0.3767015 -1.0345621,0.5958293 -0.683938,-0.034484 -1.1063925,0.1033528 -1.1063925,0.1033528 0,0 -0.1568486,-0.1716919 -0.651123,-0.1601969 -0.4942735,0.011495 -0.5224487,0.5834269 -0.5224487,0.5834269 0.2356425,0.2873687 0.5059122,0.4542358 0.5059122,0.4542358 0,0 -0.01248,0.1425247 -0.010335,0.2299602 C 1.7752384,3.4251839 1.4081677,3.563509 1.1265462,3.9026042 0.84492473,4.2416994 0.83355387,4.8793797 0.87953288,5.2012329 0.92551188,5.523086 1.3102255,5.8796187 1.4309204,5.8911133 1.5516154,5.9026081 1.7186953,5.5001965 1.7244425,5.09788 1.7301899,4.6955635 1.9255503,4.3509121 2.1161499,4.3366862 2.1628998,4.6470446 2.2850376,5.2720284 2.9786296,5.584672 3.6806872,5.9011316 4.4936451,5.7438373 4.7299438,5.718514 4.8219019,6.8507473 5.4888447,6.9601095 5.6037923,6.9773519 5.7187399,6.994594 5.7871753,6.8867789 5.8657918,6.4151123 5.9580106,5.8618382 5.783434,5.7710169 5.5660685,5.5975911 5.7902161,5.5458649 6.2867221,5.4112459 6.4895264,5.2704793 c 0.053312,-0.146636 0.017053,-0.6867798 0.017053,-0.6867798 0,0 0.055476,0.041035 0.2857707,0.1550293 C 7.1454017,4.9134875 7.6573008,4.6038403 7.7147746,4.5578613 7.7722484,4.5118823 7.8616335,4.4137317 7.5225382,4.1263631 7.1834431,3.8389941 6.9622917,3.7943532 6.4518026,3.8809001 6.2336642,2.7161945 4.9012215,2.3604825 4.7113403,2.3218221 4.9224074,2.1793016 5.2781069,2.2628482 5.5252441,2.2685954 5.7723814,2.2743428 6.0330368,2.3326794 6.1717163,2.2313883 6.348303,2.1024099 5.504793,1.5995716 4.9495687,1.5719971 Z M 2.0396688,2.5305949 A 0.10137913,0.10137913 0 0 1 2.1409546,2.6318807 0.10137913,0.10137913 0 0 1 2.0396688,2.7331665 0.10137913,0.10137913 0 0 1 1.938383,2.6318807 0.10137913,0.10137913 0 0 1 2.0396688,2.5305949 Z" /></g></svg>
