<?xml version="1.0" encoding="UTF-8" standalone="no"?>
<!-- Created with Inkscape (http://www.inkscape.org/) -->

<svg
   width="26.553419"
   height="24.363008"
   viewBox="0 0 7.0255921 6.4460459"
   version="1.1"
   id="svg1"
   xml:space="preserve"
   sodipodi:docname="vector_icons_octo.svg"
   inkscape:version="1.1.1 (c3084ef, 2021-09-22)"
   xmlns:inkscape="http://www.inkscape.org/namespaces/inkscape"
   xmlns:sodipodi="http://sodipodi.sourceforge.net/DTD/sodipodi-0.dtd"
   xmlns="http://www.w3.org/2000/svg"
   xmlns:svg="http://www.w3.org/2000/svg"><sodipodi:namedview
     id="namedview13"
     pagecolor="#ffffff"
     bordercolor="#666666"
     borderopacity="1.0"
     inkscape:pageshadow="2"
     inkscape:pageopacity="0.0"
     inkscape:pagecheckerboard="0"
     showgrid="false"
     inkscape:zoom="25.653646"
     inkscape:cx="13.272967"
     inkscape:cy="12.181504"
     inkscape:window-width="1404"
     inkscape:window-height="847"
     inkscape:window-x="36"
     inkscape:window-y="25"
     inkscape:window-maximized="1"
     inkscape:current-layer="layer9" /><defs
     id="defs1" /><g
     id="layer9"
     style="display:inline;opacity:1"
     transform="translate(-0.66393657,-0.91622314)"><path
       id="path6"
       style="display:inline;fill:#cccccc;fill-opacity:1;stroke-width:0.264583"
       d="m 4.4638102,0.91622314 c -0.1966133,0 -0.2630057,0.14670656 -0.3033406,0.18965256 C 3.8476527,1.0716027 3.1672485,1.1306803 3.1672485,1.1306803 2.338858,1.2573753 1.725806,1.7378393 1.6272909,2.4329264 1.5295322,3.1226768 2.0074936,3.5941778 2.481919,3.6525236 3.0240464,3.7191955 3.41968,3.4814318 3.5620565,3.3351969 3.2672972,3.8746479 2.4434916,4.0426956 2.0804932,4.067452 1.6622832,4.0959739 1.1528359,3.8592258 1.0748698,3.5863444 0.99690362,3.3134627 1.2524564,3.226135 1.4815633,3.3982422 1.8202284,3.6526506 1.4602204,3.6243147 1.4133504,3.6545573 1.3283148,3.709426 1.6565149,3.8662763 1.7642334,3.6612752 1.9060542,3.3913734 1.4823286,3.0275556 1.1136271,3.0468424 0.89951301,3.0580427 0.36988994,3.3857992 0.87694906,4.0736532 1.2889054,4.6324944 2.1538737,4.6095378 2.1538737,4.6095378 c 0,0 -0.2634396,0.1106881 -0.5947957,0.5395019 C 1.2277218,5.5778537 1.3844823,6.2798235 1.8515666,6.4807414 2.3100271,6.6779498 2.8322196,6.4681262 2.9238525,6.0616455 3.0146767,5.658752 2.7190983,5.4675774 2.4267253,5.565035 2.1343565,5.6624928 2.0367038,5.9142016 2.1244181,5.9252197 2.2283651,5.9382768 2.2315916,5.8573857 2.3972697,5.7696737 2.5629477,5.6819616 2.8065845,5.8278198 2.4654826,6.071464 2.1243807,6.315108 1.9786178,5.9934478 1.9688721,5.8570068 1.9591263,5.7205664 2.1170586,5.3478462 2.8427205,5.2069173 3.6440012,5.0513028 4.0637412,5.736364 3.9703003,6.2699015 3.8730472,6.8252056 3.6157498,6.9775776 3.4013428,6.9385946 3.1869358,6.8996114 3.2239669,6.2852895 3.3910075,6.2507812 3.700967,6.1867479 3.4852191,6.571131 3.5837606,6.5784098 3.721638,6.5885941 3.8495467,6.1064622 3.4984945,5.990332 3.1449515,5.8733778 2.9429728,6.5002031 2.9429728,6.7535929 c 0,0.2533902 0.1529826,0.6922534 0.640271,0.5947958 C 4.0705323,7.2509309 4.4791653,6.7336398 4.600236,6.0228882 4.7236143,5.2985892 4.9248868,5.2653856 5.1490397,5.2751302 5.3731924,5.2848756 5.8573721,5.7956452 5.7402181,6.3443156 5.6286596,6.8667808 5.3401846,6.8314137 5.1939982,6.7339559 5.0478116,6.6364983 5.0815448,6.1178259 5.2043335,6.0063517 5.3451098,5.8785474 5.3496192,6.2625373 5.4286092,6.3158936 5.4813618,6.351527 5.5477603,6.0656925 5.4492798,5.8905965 5.3507994,5.7155006 5.168233,5.6095431 4.9666219,5.8802612 4.4981424,6.5093231 4.9313941,7.1498711 5.0580892,7.2083455 5.1847843,7.2668203 5.7014874,7.4163127 6.1205566,6.68538 6.5396242,5.9544474 6.2079694,5.3308831 6.1494954,5.1846965 6.0910205,5.0385098 5.968904,4.8990789 6.1443278,4.8503499 6.3197517,4.8016211 7.1790518,5.5251957 7.1184285,5.970695 7.077947,6.2681801 6.5297688,6.4253451 6.4518026,6.6884806 6.3738365,6.9516162 6.5545981,7.2651506 6.6083822,7.2543376 6.7661531,7.2226184 6.5512791,7.0089016 6.799585,6.7696126 6.9822566,6.5935745 7.3182737,6.591681 7.5664632,6.2058228 7.958877,5.5957403 7.315228,4.7249574 6.9975057,4.4343547 6.7672691,4.2237703 6.3748047,3.8400757 6.3748047,3.8400757 c 0,0 0.2775449,-0.256806 0.5880778,-0.054777 0.3141535,0.2043845 0.051687,0.4031782 0.125057,0.4743896 C 7.1936785,4.3623167 7.5404386,3.9993554 7.2171305,3.6101156 6.8246288,3.1375716 6.1557063,3.5237502 5.9107503,3.310909 5.6144226,3.0534307 5.4605565,2.2391177 5.4322266,1.929598 5.4098484,1.6851047 5.4581444,1.344557 5.2823649,1.1792562 5.046731,0.95766864 4.7221924,1.12913 4.7221924,1.12913 c 0,0 -0.023063,-0.21290686 -0.2583822,-0.21290686 z M 4.9692057,1.4247192 c 0.071785,1.278e-4 0.1298655,0.05844 0.1297079,0.1302246 C 5.0987861,1.6265266 5.0407885,1.6845242 4.9692057,1.6846517 4.8974212,1.6848093 4.8391089,1.6267284 4.8389811,1.5549438 4.838823,1.4829574 4.8972193,1.4245611 4.9692057,1.4247192 Z" /></g></svg>
