<?xml version="1.0" encoding="UTF-8" standalone="no"?>
<!-- Created with Inkscape (http://www.inkscape.org/) -->

<svg
   width="31.845444"
   height="27.70079"
   viewBox="0 0 8.4257736 7.3291674"
   version="1.1"
   id="svg1"
   xml:space="preserve"
   sodipodi:docname="vector_icons_population.svg"
   inkscape:version="1.1.1 (c3084ef, 2021-09-22)"
   xmlns:inkscape="http://www.inkscape.org/namespaces/inkscape"
   xmlns:sodipodi="http://sodipodi.sourceforge.net/DTD/sodipodi-0.dtd"
   xmlns="http://www.w3.org/2000/svg"
   xmlns:svg="http://www.w3.org/2000/svg"><sodipodi:namedview
     id="namedview13"
     pagecolor="#ffffff"
     bordercolor="#666666"
     borderopacity="1.0"
     inkscape:pageshadow="2"
     inkscape:pageopacity="0.0"
     inkscape:pagecheckerboard="0"
     showgrid="false"
     inkscape:zoom="22.562533"
     inkscape:cx="15.933495"
     inkscape:cy="13.850395"
     inkscape:window-width="1404"
     inkscape:window-height="847"
     inkscape:window-x="36"
     inkscape:window-y="25"
     inkscape:window-maximized="1"
     inkscape:current-layer="layer27" /><defs
     id="defs1" /><g
     id="layer27"
     style="display:inline;opacity:1"
     transform="translate(0.04134613,-0.54239471)"><path
       id="rect16"
       style="fill:#cccccc;fill-opacity:1;stroke:#ffffff;stroke-width:0.264999;stroke-linecap:round;stroke-opacity:0"
       d="M 4.1403158,0.67489421 3.1527791,1.6619141 H 3.6586914 V 2.2370728 L 4.5961019,3.1744832 H 6.1582804 V 1.6619141 H 6.6874471 L 5.7004272,0.67489421 Z M 4.1201619,1.6960205 h 0.40566 v 0.4475179 h -0.40566 z m 1.1498007,0 H 5.7024943 V 2.1435384 H 5.2699626 Z M 1.5296224,2.2954671 0.27853597,3.5465535 H 0.91984049 V 5.4632324 H 2.4577311 L 4.087089,3.8338745 V 3.5465535 H 4.7578491 L 3.5072795,2.2954671 Z M 1.5043009,3.589445 H 2.0179647 V 4.1563354 H 1.5043009 Z m 1.4572754,0 h 0.548287 V 4.1563354 H 2.9615763 Z M 4.2162801,3.9630656 2.7248983,5.4544474 H 3.4891927 V 7.7390625 H 7.2651896 V 5.4544474 H 8.064624 L 6.573759,3.9630656 Z M 4.1863078,5.5056071 H 4.7986735 V 6.1815348 H 4.1863078 Z m 1.7368449,0 H 6.5768595 V 6.1815348 H 5.9231527 Z" /></g></svg>
