<?xml version="1.0" encoding="UTF-8" standalone="no"?>
<!-- Created with Inkscape (http://www.inkscape.org/) -->

<svg
   width="30.243319"
   height="18.618996"
   viewBox="0 0 8.001878 4.9262759"
   version="1.1"
   id="svg1"
   xml:space="preserve"
   sodipodi:docname="vector_icons_hurricane 2 trace.svg"
   inkscape:version="1.1.1 (c3084ef, 2021-09-22)"
   xmlns:inkscape="http://www.inkscape.org/namespaces/inkscape"
   xmlns:sodipodi="http://sodipodi.sourceforge.net/DTD/sodipodi-0.dtd"
   xmlns="http://www.w3.org/2000/svg"
   xmlns:svg="http://www.w3.org/2000/svg"><sodipodi:namedview
     id="namedview13"
     pagecolor="#ffffff"
     bordercolor="#666666"
     borderopacity="1.0"
     inkscape:pageshadow="2"
     inkscape:pageopacity="0.0"
     inkscape:pagecheckerboard="0"
     showgrid="false"
     inkscape:zoom="33.567869"
     inkscape:cx="15.118624"
     inkscape:cy="9.4286594"
     inkscape:window-width="1404"
     inkscape:window-height="847"
     inkscape:window-x="36"
     inkscape:window-y="25"
     inkscape:window-maximized="1"
     inkscape:current-layer="layer23" /><defs
     id="defs1" /><g
     id="layer23"
     style="display:inline;opacity:1"
     transform="translate(-0.1263334,-2.0834017)"><path
       id="path12"
       style="display:inline;fill:#cccccc;fill-opacity:1;stroke:#ffffff;stroke-width:0.264999;stroke-linecap:round;stroke-opacity:0"
       d="m 6.4339563,2.9346926 c -0.60522,0.0036 -1.6299174,0.1118229 -2.840894,0.6583697 -0.9736047,0.4394145 -1.7091717,1.1577292 -1.2149129,1.5068848 0.343943,0.2429691 1.0943851,0.0829 1.4991333,5.168e-4 C 3.2730042,5.5267214 1.8346139,5.8469301 1.6112712,5.2730632 1.3961733,4.7203809 2.0076294,4.273641 2.0076294,4.273641 1.1935322,4.5796466 0.93672863,5.2520353 0.92035726,5.4870036 c -0.007896,0.1133229 -0.66145833,0.033073 -0.66145833,0.033073 0,0 -0.0457922,0.8958659 1.33273517,0.7348389 C 4.1036362,5.9614859 5.3835553,4.4818523 5.4420451,4.2012939 5.4908152,3.967358 5.3586987,3.7383735 4.915979,3.7294881 4.3929463,3.7189909 3.5791776,4.1449091 3.3641357,4.3253174 3.9514407,3.4469584 6.3889226,2.9755943 5.7918945,4.2369507 5.2550947,5.3710615 3.2673634,6.4058065 2.0897949,6.8259399 3.1290209,7.0558262 4.3948074,6.4282843 4.6333089,6.4404338 4.8336284,6.4506382 4.5402682,6.9379256 4.7562988,6.7768473 7.2866944,4.8901161 6.7067366,3.2651257 6.1949707,3.282487 6.6316743,3.2548713 7.3017975,3.4307687 7.2817022,4.0980128 7.2595986,4.8319426 6.5050293,5.6260132 6.5050293,5.6260132 c 0,0 1.379599,-0.7666129 1.4869714,-1.7828489 C 8.0594117,3.205147 7.268795,2.9297305 6.4339563,2.9346926 Z M 4.6131551,4.0633179 C 4.7585668,4.0641214 4.853251,4.1012597 4.8792887,4.1677043 4.93812,4.317641 4.6387749,4.5739582 4.2105957,4.7402791 3.7822639,4.9067357 3.3870625,4.9201559 3.3279622,4.7702515 3.2683445,4.6203906 3.5678932,4.3636676 3.9966553,4.1971598 4.2187045,4.110962 4.443156,4.0622336 4.6131551,4.0633179 Z M 5.4280678,2.4900184 c 0,0 -1.3361657,0.2770887 -2.6096091,1.0670043 0.4305124,-0.7237929 1.0759645,-1.187628 1.0759645,-1.187628 0,0 -0.025847,0.1981675 0.068928,0.1809356 0.094776,-0.017232 0.9046779,-0.2498635 1.4647166,-0.060312 z" /></g></svg>
