<?xml version="1.0" encoding="UTF-8" standalone="no"?>
<!-- Created with Inkscape (http://www.inkscape.org/) -->

<svg
   width="25.137199"
   height="22.622295"
   viewBox="0 0 6.650884 5.9854823"
   version="1.1"
   id="svg1"
   xml:space="preserve"
   sodipodi:docname="vector_icons_algae.svg"
   inkscape:version="1.1.1 (c3084ef, 2021-09-22)"
   xmlns:inkscape="http://www.inkscape.org/namespaces/inkscape"
   xmlns:sodipodi="http://sodipodi.sourceforge.net/DTD/sodipodi-0.dtd"
   xmlns="http://www.w3.org/2000/svg"
   xmlns:svg="http://www.w3.org/2000/svg"><sodipodi:namedview
     id="namedview99"
     pagecolor="#ffffff"
     bordercolor="#666666"
     borderopacity="1.0"
     inkscape:pageshadow="2"
     inkscape:pageopacity="0.0"
     inkscape:pagecheckerboard="0"
     showgrid="false"
     inkscape:zoom="27.627612"
     inkscape:cx="12.577996"
     inkscape:cy="11.311148"
     inkscape:window-width="1296"
     inkscape:window-height="847"
     inkscape:window-x="36"
     inkscape:window-y="25"
     inkscape:window-maximized="0"
     inkscape:current-layer="layer13" /><defs
     id="defs1" /><g
     id="layer13"
     style="display:inline;opacity:1"
     transform="translate(-0.7129839,-0.93669314)"><path
       style="fill:#cccccc;fill-opacity:1;stroke-width:0.264583"
       d="M 0.77250564,4.9427525 C 0.57409783,4.7830193 0.91979484,4.4709463 1.106818,4.2152257 c 0.082187,-0.1123763 0.402674,0.041231 0.402674,0.041231 0,0 0.2600596,0.064791 0.3596578,0.018741 C 1.9627911,4.2319018 1.6941144,3.7149176 1.6153365,3.6046103 1.5838451,3.5605152 1.4952125,3.4818093 1.6583529,3.3258087 1.7908704,3.1990908 2.0562078,2.9643662 2.0562078,2.9643662 c 0,0 0.110704,-0.1705355 0.3255663,0.051405 0.2438179,0.25185 0.4710357,0.3264584 0.608116,0.7376997 0.1370804,0.4112416 0.5517135,1.3424258 0.5913384,1.4984262 0.035919,0.1414094 0.092101,0.1181606 0.1520732,-0.5586745 C 3.7932746,4.0163875 3.2642296,3.0757439 3.2642296,3.0757439 L 2.6387999,1.9362622 c 0,0 -0.159749,-0.2727332 0.011601,-0.4012462 0.1713505,-0.128513 0.5417179,-0.3371679 0.5417179,-0.3371679 0,0 0.2348934,-0.1954468 0.3976765,0.044444 0.162783,0.2398909 0.3512687,0.7025376 0.4112416,0.4455116 0.059973,-0.2570259 0.05247,-0.445365 0.085497,-0.5742032 0.03427,-0.13368923 0.077286,-0.25684739 0.5485005,-0.1111993 0.4712144,0.145648 0.4733565,0.2056207 0.4733565,0.419809 0,0.2141883 -0.1016347,0.9350434 -0.2627381,1.6740601 C 4.6809067,3.8519982 4.7685152,3.717943 4.9811274,3.3582938 5.1315946,3.1037674 5.2035262,3.0309427 5.2981262,2.5786486 c 0.095121,-0.4547847 0.132796,-0.5217265 0.132796,-0.5217265 0,0 0.1135199,-0.1490394 0.5045924,-0.010888 C 6.3187013,2.1813996 6.4542542,2.2492794 6.3744225,2.4756596 6.2994567,2.6882414 6.1654103,3.1026958 6.349969,2.8785122 6.5848769,2.5931693 6.7340802,2.4074765 6.905431,2.527422 7.0767815,2.6473674 7.5208655,3.0536113 7.3066771,3.33634 7.0924887,3.6190685 6.5978379,4.0494334 5.7420315,4.7158911 4.8836719,5.3843372 4.3437389,6.1514881 4.6778724,5.9544349 5.0120063,5.7573817 5.8996382,5.0958967 6.3879876,4.8474382 6.876337,4.5989799 7.0289462,4.7262436 7.1146214,4.8633242 7.200297,5.0004045 7.4517894,5.3991517 7.2118986,5.4762595 6.9720075,5.5533673 6.6830321,5.6119121 6.357466,5.7832629 6.0318997,5.9546134 6.2935673,5.8837522 6.4654527,5.8908922 6.8095665,5.9051865 7.0486981,5.80701 7.0939164,5.9273055 7.1501408,6.0768806 7.1410375,6.5909324 6.9611195,6.6680402 6.7812015,6.745148 6.4982943,6.7065938 6.1313181,6.7133763 5.8053571,6.7194008 5.0634116,6.6398385 4.3951442,6.7769189 3.7268766,6.9139995 3.8073759,7.0164527 3.5332149,6.7851293 3.2590534,6.5538049 2.4999344,5.8573364 1.99445,5.5831754 1.4889656,5.3090145 1.3692767,5.4231979 0.77250564,4.9427525 Z"
       id="path8" /></g></svg>
