<?xml version="1.0" encoding="UTF-8" standalone="no"?>
<!-- Created with Inkscape (http://www.inkscape.org/) -->

<svg
   width="30.998117"
   height="14.412518"
   viewBox="0 0 8.2015852 3.8133119"
   version="1.1"
   id="svg1"
   xml:space="preserve"
   sodipodi:docname="vector_icons_meso.svg"
   inkscape:version="1.1.1 (c3084ef, 2021-09-22)"
   xmlns:inkscape="http://www.inkscape.org/namespaces/inkscape"
   xmlns:sodipodi="http://sodipodi.sourceforge.net/DTD/sodipodi-0.dtd"
   xmlns="http://www.w3.org/2000/svg"
   xmlns:svg="http://www.w3.org/2000/svg"><sodipodi:namedview
     id="namedview13"
     pagecolor="#ffffff"
     bordercolor="#666666"
     borderopacity="1.0"
     inkscape:pageshadow="2"
     inkscape:pageopacity="0.0"
     inkscape:pagecheckerboard="0"
     showgrid="false"
     inkscape:zoom="36.873207"
     inkscape:cx="15.499059"
     inkscape:cy="7.2003501"
     inkscape:window-width="1404"
     inkscape:window-height="847"
     inkscape:window-x="36"
     inkscape:window-y="25"
     inkscape:window-maximized="1"
     inkscape:current-layer="layer4" /><defs
     id="defs1" /><g
     id="layer4"
     style="display:inline;opacity:1"
     transform="translate(-0.12842688,-2.5308224)"><path
       id="path5"
       style="display:inline;fill:#cccccc;fill-opacity:1;stroke-width:0.264583"
       d="M 4.563029,2.5311117 C 4.5005499,2.5347849 4.4128457,2.572614 4.3614909,2.6008748 4.2812154,2.6450508 4.0855886,2.7510838 3.9578979,2.83962 4.0289043,2.7566777 4.1090797,2.6785493 4.102592,2.6013916 4.0883649,2.4321893 3.8494476,2.6138926 3.418396,2.8318685 2.6688724,2.8912898 2.1859133,3.0429399 1.6511544,3.3268796 1.1316868,3.6027001 0.61762302,3.9738121 0.51831462,4.0752035 0.34298689,4.2542086 0.48937581,4.3630412 0.48937581,4.3630412 c 0,0 0.25914343,0.2233192 0.30954183,0.3457153 0,0 -0.35291643,-0.2376443 -0.52554931,-0.3240112 -0.18740088,0.093451 -0.2375159,0.2012803 0.12247314,0.4676717 1.03610373,0.7667159 1.86190183,0.9022705 1.86190183,0.9022705 0,0 0.5936165,0.5615127 1.0697022,0.5891113 0.2731364,0.015301 -0.116272,-0.497644 -0.116272,-0.497644 L 4.3837118,5.819283 c 0,0 1.0883946,0.4899694 1.9378662,0.055811 C 7.0554028,5.5000407 6.4853222,5.039436 6.4042603,4.9640381 6.5500195,4.7073679 7.3675535,5.1210808 7.8315633,5.2446411 8.529109,5.4303892 8.4747184,3.3205658 7.7922892,3.6380208 7.1586694,3.9327705 6.6448228,4.216361 6.4120117,3.9976888 6.562067,3.8904549 6.7091673,3.8021012 6.7365397,3.6385376 6.781791,3.3681388 6.4624363,3.0843721 6.2011719,3.0075684 6.10921,2.9805324 5.8823283,2.995166 5.8823283,2.995166 c 0,0 0.1440303,-0.1298477 0.00723,-0.1586466 -0.1367956,-0.028799 -0.4537191,0.072347 -0.4537191,0.072347 0,0 0.2087655,-0.1083876 0.1007691,-0.1875855 C 5.4286116,2.6420839 4.8668191,2.886953 4.960416,2.8437541 c 0,0 0.1586742,-0.2300653 0.057878,-0.2516643 C 4.9175017,2.5704905 4.675603,2.7249647 4.5516602,2.8163656 4.560945,2.7537695 4.5113249,2.8819801 4.6121216,2.6659871 4.66252,2.5579904 4.625508,2.5274384 4.563029,2.5311117 Z M 1.8056065,3.6351881 c 0.083095,-1.042e-4 0.1504826,0.067284 0.1503784,0.1503784 -1.813e-4,0.082893 -0.067485,0.1499657 -0.1503784,0.1498617 -0.082691,-1.807e-4 -0.149681,-0.06717 -0.1498617,-0.1498617 -1.04e-4,-0.082893 0.066969,-0.1501971 0.1498617,-0.1503784 z" /></g></svg>
