<?xml version="1.0" encoding="UTF-8" standalone="no"?>
<!-- Created with Inkscape (http://www.inkscape.org/) -->

<svg
   width="18.57741"
   height="27.158375"
   viewBox="0 0 4.915273 7.1856533"
   version="1.1"
   id="svg1"
   xml:space="preserve"
   sodipodi:docname="vector_icons_warming.svg"
   inkscape:version="1.1.1 (c3084ef, 2021-09-22)"
   xmlns:inkscape="http://www.inkscape.org/namespaces/inkscape"
   xmlns:sodipodi="http://sodipodi.sourceforge.net/DTD/sodipodi-0.dtd"
   xmlns="http://www.w3.org/2000/svg"
   xmlns:svg="http://www.w3.org/2000/svg"><sodipodi:namedview
     id="namedview143"
     pagecolor="#ffffff"
     bordercolor="#666666"
     borderopacity="1.0"
     inkscape:pageshadow="2"
     inkscape:pageopacity="0.0"
     inkscape:pagecheckerboard="0"
     showgrid="false"
     inkscape:zoom="23.013159"
     inkscape:cx="9.2773008"
     inkscape:cy="13.579187"
     inkscape:window-width="1296"
     inkscape:window-height="847"
     inkscape:window-x="36"
     inkscape:window-y="25"
     inkscape:window-maximized="0"
     inkscape:current-layer="layer29" /><defs
     id="defs1" /><g
     id="layer29"
     style="display:inline;opacity:1"
     transform="translate(-1.8352682,-0.77620828)"><path
       id="path13-6"
       style="display:inline;opacity:1;fill:#cccccc;fill-opacity:1;stroke:#ffffff;stroke-width:0.12232;stroke-linecap:round;stroke-opacity:0"
       d="m 4.2740113,4.9741733 c -0.020158,-4.8e-4 -0.038641,-2.08e-4 -0.052954,9.546e-4 -0.089124,0.00171 -0.1632292,0.011648 -0.2013198,0.017413 -0.08532,0.01343 -0.1551754,0.032403 -0.2003656,0.046036 -0.08531,0.026123 -0.1547756,0.05657 -0.1958337,0.075852 -0.079825,0.037714 -0.1430995,0.076685 -0.1843841,0.1039994 -0.074692,0.049587 -0.1332921,0.09902 -0.1674485,0.1295221 -0.04088,0.036568 -0.079604,0.075276 -0.1161643,0.1161644 -0.03035,0.033966 -0.080616,0.093285 -0.1331002,0.1731732 -0.042807,0.065831 -0.076401,0.1272621 -0.1054304,0.1901089 -0.053064,0.120819 -0.1347675,0.3243638 -0.1347698,0.6144547 0.00116,0.2334283 0.057995,0.4632136 0.1657787,0.670271 0.00117,-7.524e-4 0.0024,-0.0014 0.00358,-0.00215 0.2508461,0.4845053 0.7503479,0.7892814 1.2959366,0.7907288 0.5135357,-0.00107 0.9889525,-0.2711799 1.2527627,-0.7117752 0.00237,-2.579e-4 0.0048,-7.201e-4 0.00716,-9.546e-4 0.117645,-0.1978422 0.1870996,-0.4205885 0.202751,-0.6502344 0.00291,-0.019051 0.00643,-0.04906 0.00692,-0.095889 C 5.7171167,5.5317487 4.9723877,5.1162333 4.6563758,5.0318977 4.562997,5.0049974 4.4855667,4.9924792 4.4409827,4.9872926 4.4108045,4.9830308 4.3344854,4.9756093 4.2740113,4.9741733 Z m -0.020752,0.163632 c 0.025331,0.066796 0.055897,0.1731188 0.046513,0.2833743 C 4.2844248,5.6015102 4.2058175,5.39479 4.0924895,5.3865927 3.9612929,5.3771031 3.8836714,5.3104312 3.8088766,5.2210525 3.9509508,5.1673688 4.1013871,5.1391873 4.2532593,5.1378053 Z m -0.4839784,0.099706 c 0.026371,0.1026086 0.082745,0.2440676 0.1431183,0.2871908 0.080573,0.057552 0.1689108,0.1766738 0.07299,0.3263099 -0.095921,0.1496358 -0.1604001,0.3059127 -0.07299,0.3911901 0.1573096,0.1534726 0.1919467,0.2764569 0.1152102,0.2764569 -0.076737,0 -0.2916713,-0.2533045 -0.3914286,-0.2110995 -0.099757,0.042205 -0.2761533,0.1880473 -0.1533752,0.3069889 0.1227782,0.1189414 0.1437651,0.00107 0.2800349,0.203228 0.1247729,0.1851024 0.2877637,0.076851 0.3146218,0.2034665 0.03984,0.1878155 -0.023138,0.3375208 -0.023138,0.3375208 0,0 -0.3411628,0.3665538 -0.203037,0.3396952 C 3.9700677,7.8134631 4.6071279,7.8142845 4.7217805,7.712466 4.8138646,7.7815289 5.2169941,7.0633976 5.1134001,6.9406195 5.009808,6.8178413 4.8908664,6.7449797 4.9330712,6.6183647 4.9746084,6.4937602 5.1911143,6.347515 5.5453792,6.4964755 5.5089905,7.1815702 4.9428974,7.7184259 4.256837,7.7184677 3.9187253,7.7178103 3.6006163,7.5843654 3.3642557,7.3566168 c 0.021664,-0.1392829 0.023682,-0.3106519 0.02266,-0.409557 -3.4e-6,-3.255e-4 3.4e-6,-6.324e-4 0,-9.545e-4 4.225e-4,-0.00926 -2.702e-4,-0.019825 -4.754e-4,-0.029817 -3.351e-4,-0.018592 -4.471e-4,-0.02142 -7.154e-4,-0.029817 -1.826e-4,-0.00571 -4.755e-4,-0.020275 -4.755e-4,-0.020275 l -0.00143,2.386e-4 C 3.3766331,6.7877012 3.3596831,6.7030339 3.3561456,6.6605846 3.3484721,6.5684992 3.1987113,6.3957857 3.0644226,6.3113757 3.0281666,6.2885864 3.0021158,6.2572212 2.9828452,6.2238351 3.0554787,5.7806027 3.3533511,5.4070201 3.7692809,5.2375113 Z m 1.0161402,0.013358 c 0.3983606,0.1789253 0.6792017,0.5471871 0.7463623,0.9786904 -0.031216,-0.027617 -0.081111,-0.080123 -0.1655403,-0.1867693 -0.0729,-0.092084 -0.2523009,-0.0157 -0.237815,0.079431 0.00998,0.06556 -0.2273913,0.1577554 -0.2900532,0.096366 -0.044192,-0.043295 -0.052566,-0.1203878 -0.09088,-0.257136 -0.02463,-0.087904 0.00425,-0.090904 0.1304762,-0.1760355 0.028807,-0.019426 0.047533,-0.052662 0.1221277,-0.1199809 0.04764,-0.042993 0.057347,-0.094576 0.00644,-0.1483661 C 4.9662378,5.4744828 4.8791132,5.5553871 4.79854,5.4364456 4.7434081,5.3550605 4.7516687,5.2835341 4.7854211,5.2508693 Z" /><path
       style="fill:#cccccc;fill-opacity:1;stroke:#ffffff;stroke-width:0.264999;stroke-linecap:round;stroke-opacity:0"
       d="M 2.5550226,6.6298431 C 2.7789179,7.2195541 1.8933754,6.0039324 1.973258,5.208322 2.0650021,4.2945749 2.6060871,4.0295338 2.6060871,4.0295338 c 0,0 -0.029039,0.2875732 0.158183,0.3316255 C 2.9514916,4.4052114 3.3259344,4.1849508 3.0285827,3.6232864 2.731231,3.0616218 3.1196084,2.2912649 3.5383425,2.2796969 3.3452234,2.4780277 3.1703692,2.9469481 3.3297864,3.2423738 3.5038744,3.5649867 3.7361427,3.4622523 3.7994947,3.3479605 3.8809934,3.2009306 3.765092,3.0285827 3.6659754,2.9074395 3.566858,2.7862961 3.5792704,2.4462914 3.8105437,2.2370439 4.0418173,2.0277963 4.3392415,1.6753434 4.2179898,1.0572507 4.653089,1.3390863 4.6419336,1.8833145 4.6076074,2.2606497 4.572392,2.6477591 4.9977799,2.2523955 4.997425,1.9442572 5.1826459,2.1945709 4.9681667,2.9844946 5.1361606,3.4029898 5.310464,3.8372026 5.4808382,3.8215841 5.5854303,4.1265881 5.6435845,4.296173 5.7267748,4.8457326 6.0021005,4.658511 6.2774261,4.4712895 6.0241265,3.9867162 6.0241265,3.9867162 c 0,0 0.6828078,0.6607818 0.5836907,1.4206807 -0.099117,0.759899 -0.7268599,1.4206805 -0.7268599,1.4206805 0,0 0.2863387,-0.7598989 -0.1541825,-1.4427065 C 5.286254,4.7025631 5.1712865,4.6743798 5.0932591,4.3132407 5.0244296,4.5197487 4.8298312,4.7769315 4.6095711,4.5016059 4.3893106,4.2262802 4.3104253,3.720331 4.1519123,3.6232864 4.1652764,3.8413813 4.3060945,4.1298857 3.6232869,4.636485 2.9404791,5.1430843 2.8964271,5.4073969 2.8964271,5.4073969 c 0,0 -0.1541825,-0.3200636 -0.066078,-0.5733632 C 2.6661423,4.8912703 2.242509,5.475401 2.5550226,6.6298431 Z"
       id="path19" /></g></svg>
