<?xml version="1.0" encoding="UTF-8" standalone="no"?>
<!-- Created with Inkscape (http://www.inkscape.org/) -->

<svg
   width="28.431641"
   height="16.804153"
   viewBox="0 0 7.5225382 4.4460989"
   version="1.1"
   id="svg1"
   xml:space="preserve"
   sodipodi:docname="vector_icons_herb_aqua.svg"
   inkscape:version="1.1.1 (c3084ef, 2021-09-22)"
   xmlns:inkscape="http://www.inkscape.org/namespaces/inkscape"
   xmlns:sodipodi="http://sodipodi.sourceforge.net/DTD/sodipodi-0.dtd"
   xmlns="http://www.w3.org/2000/svg"
   xmlns:svg="http://www.w3.org/2000/svg"><sodipodi:namedview
     id="namedview13"
     pagecolor="#ffffff"
     bordercolor="#666666"
     borderopacity="1.0"
     inkscape:pageshadow="2"
     inkscape:pageopacity="0.0"
     inkscape:pagecheckerboard="0"
     showgrid="false"
     inkscape:zoom="37.193186"
     inkscape:cx="8.9129229"
     inkscape:cy="8.4020767"
     inkscape:window-width="1404"
     inkscape:window-height="847"
     inkscape:window-x="36"
     inkscape:window-y="25"
     inkscape:window-maximized="1"
     inkscape:current-layer="layer2" /><defs
     id="defs1" /><g
     id="layer2"
     style="display:inline"
     transform="translate(-0.49506022,-2.3397251)"><path
       id="path1"
       style="fill:#6ccac0;fill-opacity:1;stroke-width:0.264583"
       d="M 3.8938192,2.3399089 C 3.7940118,2.3407615 3.6938043,2.3444645 3.5930623,2.3507609 2.787127,2.401132 2.1071932,2.8291935 1.469161,3.4504354 0.83112871,4.0716773 0.49506022,5.0456868 0.49506022,5.0456868 c 0,0 0.20514611,0.2002901 0.76791178,0.6630087 0.5627657,0.4627184 1.2462268,0.8453082 1.9011759,0.9880534 0.4877304,0.1062999 0.8128703,0.08785 0.8128703,0.08785 0,0 0.2538737,-0.013018 0.3529301,-0.1056965 C 4.0085334,6.6394915 3.8549617,6.4558366 3.8549617,6.4558366 c 0,0 -0.1304238,-0.115591 0.3374471,0.050126 C 4.591123,6.647185 5.0397842,6.7031121 5.7526204,6.3091756 6.4431749,5.9275528 6.4843587,5.5526865 6.4843587,5.4213745 c 0,-0.1313121 -0.3503662,-0.4630208 -0.3503662,-0.4630208 0.1715647,0.030975 0.3391701,0.1323839 0.489405,0.2208337 0.2536323,0.1493243 0.4615909,0.2472649 0.7808017,0.2654415 0.4181732,0.023812 0.6133993,-0.206189 0.6133993,-0.206189 C 7.7237679,5.3223917 7.0857543,5.1630563 7.1277303,4.4410726 7.1697062,3.7190886 7.992277,3.8199219 7.992277,3.8199219 c 0,0 -0.1932332,-0.1511584 -0.5374349,-0.1679484 C 7.1106404,3.635183 6.8085518,3.8281265 6.523116,4.0715861 6.2376807,4.3150456 6.0864502,4.2478027 6.0864502,4.2478027 c 0,0 0.2086133,-0.1873048 0.3524333,-0.3524332 C 6.5094938,3.8142973 6.5395988,3.4167104 5.8595907,2.9130005 5.2645836,2.4722544 4.5924705,2.3339404 3.8938192,2.3399089 Z M 1.6557129,4.0907064 c 0.1217325,1.21e-4 0.220306,0.098926 0.2201416,0.2206583 C 1.8757336,4.4328954 1.7772436,4.5313854 1.6557129,4.5315063 1.5339804,4.5316707 1.4351755,4.4330973 1.4350545,4.3113647 1.4348898,4.1894303 1.5337785,4.0905417 1.6557129,4.0907064 Z" /></g></svg>
